<mxfile host="" modified="2020-09-19T20:51:03.091Z" agent="5.0 (Macintosh; Intel Mac OS X 10_15_6) AppleWebKit/537.36 (KHTML, like Gecko) Code/1.45.1 Chrome/78.0.3904.130 Electron/7.2.4 Safari/537.36" etag="5TKUQZVs4y9KbRxIH0x8" version="13.1.3">
    <diagram id="6hGFLwfOUW9BJ-s0fimq" name="Page-1">
        <mxGraphModel dx="552" dy="410" grid="1" gridSize="10" guides="1" tooltips="1" connect="1" arrows="1" fold="1" page="1" pageScale="1" pageWidth="827" pageHeight="1169" math="0" shadow="0">
            <root>
                <mxCell id="0"/>
                <mxCell id="1" parent="0"/>
                <mxCell id="2" value="" style="shape=image;verticalLabelPosition=bottom;labelBackgroundColor=#ffffff;verticalAlign=top;aspect=fixed;imageAspect=0;image=data:image/png,iVBORw0KGgoAAAANSUhEUgAAApEAAAF2CAYAAAA2gsNsAAABPmlDQ1BJQ0MgUHJvZmlsZQAAKJFjYGASSCwoyGFhYGDIzSspCnJ3UoiIjFJgf8LAwSDNwMugwsCVmFxc4BgQ4ANUwgCjUcG3awyMIPqyLsisp788Ur9MZl2SYP37FmtG91NM9SiAKyW1OBlI/wHixOSCohIGBsYEIFu5vKQAxG4BskWKgI4CsmeA2OkQ9hoQOwnCPgBWExLkDGRfAbIFkjMSU4DsJ0C2ThKSeDoSG2ovCLD7BphaeoQQcCkZoCS1ogREO+cXVBZlpmeUKDgCQyhVwTMvWU9HwcjAyICBARTeENWfb4DDkVGMAyFWCPSflScDA1MuQiwhgIFhxweQNxFiqjoMDDzHGRgOxBYkFiXCHcD4jaU4zdgIwubezsDAOu3//8/hQC9rMjD8vf7//+/t////XcbAwHwLqPcbANhFXyhpLmndAAAAVmVYSWZNTQAqAAAACAABh2kABAAAAAEAAAAaAAAAAAADkoYABwAAABIAAABEoAIABAAAAAEAAAKRoAMABAAAAAEAAAF2AAAAAEFTQ0lJAAAAU2NyZWVuc2hvdHCGwiwAAAHWaVRYdFhNTDpjb20uYWRvYmUueG1wAAAAAAA8eDp4bXBtZXRhIHhtbG5zOng9ImFkb2JlOm5zOm1ldGEvIiB4OnhtcHRrPSJYTVAgQ29yZSA1LjQuMCI+CiAgIDxyZGY6UkRGIHhtbG5zOnJkZj0iaHR0cDovL3d3dy53My5vcmcvMTk5OS8wMi8yMi1yZGYtc3ludGF4LW5zIyI+CiAgICAgIDxyZGY6RGVzY3JpcHRpb24gcmRmOmFib3V0PSIiCiAgICAgICAgICAgIHhtbG5zOmV4aWY9Imh0dHA6Ly9ucy5hZG9iZS5jb20vZXhpZi8xLjAvIj4KICAgICAgICAgPGV4aWY6UGl4ZWxYRGltZW5zaW9uPjY1NzwvZXhpZjpQaXhlbFhEaW1lbnNpb24+CiAgICAgICAgIDxleGlmOlVzZXJDb21tZW50PlNjcmVlbnNob3Q8L2V4aWY6VXNlckNvbW1lbnQ+CiAgICAgICAgIDxleGlmOlBpeGVsWURpbWVuc2lvbj4zNzQ8L2V4aWY6UGl4ZWxZRGltZW5zaW9uPgogICAgICA8L3JkZjpEZXNjcmlwdGlvbj4KICAgPC9yZGY6UkRGPgo8L3g6eG1wbWV0YT4KFu8XswAAQABJREFUeAHsnQd4FWX2xt9JCIHQe5Pee0dQqiICCqiICgiIgoCiror6d3Vtq666uvZVcBUBsYIKKqIiRUEQQSmC0ntHOiEhJPM/70wmmVxukpvk3tySc54nuXNnvvnKb5LcN+f7vnOMbdu2mVBTAkpACSgBJaAElIASUAI5IGCcOHFCRWQOgGlRJRAsAgM/Pof9p/TXNVj8s2u3cnEDM68rlF0xva4ElIASiAgCBw8ehPUXr0SJEhExIB2EEohkAgfPJSGqSCSPMLzHdvAcUKJETHgPQnuvBJSAEvCRQJqI9LG8FstnAseffQHHn3shrdVS999rHbvPpV2MwANv4+W5Ug/YHCJwyDokJaAElIASUAJhQyAqbHqqHVUCSkAJKAEloASUgBIIGQIqIkPmUWhHlIASUAJKQAkoASUQPgRURIbPs9KeKgEloASUgBJQAkogZAioiAyZR6EdUQJKQAkoASWgBJRA+BBQERk+z0p7qgSUgBJQAkpACSiBkCGgIjJkHoV2RAkoASWgBJSAElAC4UNARWT4PCvtqRJQAkpACSgBJaAEQoaAisiQeRTaESWgBJSAElACSkAJhA8BFZHh86y0p0ogaARGtgDm3mBi3hATNzYDutUAvrguZykYc3NP0AasDSsBJaAElEC2BFREZosoPApElSqFQnVqh0xno8qUQVS5siHTH+1I7gkUk0x+49qamPibgXdWGxjfzsTuk8CczXadNUoCNzQBLq0F1C0DXHwB0KYyMKw5ULt0ervbjtn3FI6GJURbVgQGNQaijPQy1zQCWlWy63POX1hN2m9joporOyvvYzm+0hrIj9roVibKaFpIG4h+VwJKQAnkAwErd3Y+tKNNBIBAxVXLcXTkaBFr5VBm2jtImPstjo281WtL5ZcswOnX3sCZDz72et3bydzc49RT6sXnEFW2LP7qP9A5dd5rqRf/DaNEcRwbNe68a3oidAicTgL2iGikSJskQrLjuwb6NwCuF+H47Tbg/atM7DgO1CoFTF4NtK8KNC4H7D3Fe4Cu02yV2EqEJe/5bANwZ3sT++R6hTigdCzw1iq7zF1y3hQHZ7J89asPq71nephYfZCi1LTqmtTXRE1pixYrgnTtQQOTrzSx6Shwc0sTPaYbSJA81mpKQAkoASUQWALqiQws34DWHlWhPKIqVUKJR/4O8+QpnH71v2ntRdeuheL334OYljIPKZYw83Mk/Saf8GJxI4ej8IUdrNdCDeqjyIArUfT6axHbo5t13fnm3BM34kbEtGiOYnfdDno83RbbrQuK/98ERNeU+U0xo2QJFBs/DkaxYtZ71lm4a2cUG3erdW/h9u0Qd+MQcT9FIXHefCR+/S1iL+2Bwp0uRLHbxoD9UQs9AiO/NLB8HzCho4lZg0ThpdrVDU3sFzF43acGDsU7Z4FFO4ERXxgoIv+mFsrkr8yATwxLHLYQj6Lbnl1q4L7vDcuruXQP8PUWoLyITdZDTycF6kMLDTzxoy082QcaPZeGfF1Rz12bHisBJaAElECgCKgnMlBk86leIyYGUaVLi/cmBdGVK0OcRpZYq7BYBNoPi1H8rvE4fFlfxI26CWZ8PEq98Cyi69WxemcUKYLTL7+O4vfdjXN/bkChRg1x6KLuSN623bru3EMxiuQUmElnUeTyXvir7wDremzvy1DmrTdw9peVKH7bWOyv2wgV16xAyv4DiK5+AZJW/obi99yFmFYtYJ5JQImH/w/ntmxFdK2aIn4rIqZNKxhFi8KIjRWR2gzJO3eh+IS/4UCd1DlKq5XMv8UnnMaMhdOtAsN7e/fAZn63XvGVQOPywGuXm7hKRN+MP4B3xOvHKWnavlMG4mJMS+DRK+i2cynud96P6XX0tLJFgRgRjGeTgdtkGr1bTeAmEaQzBtqFE+V8ZfkfJSa1vR3HDfFcynT7rwZaVDTxw07PGvW9ElACSkAJBIKAishAUM3HOlOOH8fZlb8iukIFJMyZa7WccvIk+EWv3un/Tca5TamL1+QqxdrRYTeDArLUxNfs8gcP4XCPy1Fp0zrEitcwPlVEuodxfMIDiBavZ7F77kw7fXb+IpwRD2dM+7ZScSHEXXsNKGoPdeyKMu++ZU1ns3DivAU48fdHUOHXpTjctSfKzvgAhTu0g3kufc4x4ZvvcPye+1Fpw1qrLiSlX0trMPXAEY8zF0wHj3t16IfVm1d6Fou49zGnzyGpWJt8H9cfh4FdJ4DvZFMNp5npHaTAo83aCAyXtY8/DjPpXLY8gfaV3H/n+sdo8Sh+8iewcIeB6xqbeLefLSC5/vKj9cADney+sJWPRdhybeSzl5hIkWJfbMp923qnElACSkAJ+E5ARaTvrMKmJKeWORV9buMmlHzyMSSL988xMyER0dVkp0LhGOdU2quZkqoM0s5kPDBTMrqWij/0AGL7iGeyd39UWLIAyeKBpIrglDbXaVqL21KroBc0zTzqSTufhXBMKyMH9D46ApLnV29egQNH9rqLRORxTHyroIhIwqQn0PE+OgJy9kYDFcUjuFME5s97DIySNZOLdhr4r0vPd5hsTzmzjtkiOHkPzTl/29z069YF+fbUEgPfb08Xqp2nGtZUtePZbCnT359LXc0q2FPcPH/1DANF5Uf6DF3xakpACSgBJZAvBFRE5gvm/G0k5fBhFLlmAIzChUHReHbxT2kdOP32ZJR85p/wFIRpBXJwkPjVXBQbOQLl5s627qJ4TFrxKyr9sdryMp5bLV7FABinrq/tPjRNTPa6sB8KwnR2q4nBVUiOeHQ/0iNnZAPNSYb8MfHicgPrDrmv5vx4tfwfwvrcbdG7yC/Hlu42MEa8ldzs8+qKdBGqAtIhpK9KQAkogfwhYJw4ccIsUcIVOyN/2tVWfCBw/NkXcPy5F9JKlrr/XuvYfS7topcD7nzmhhu30TOJQoUQ07Y1DHnlNHaeLFoWpnFHg8uLyDWOZmJinqrlzd7Gy3OlHrA5sIwzta0ikjTUgk1g1ZjzPfzB7pO2rwSUgBIIBIEtW7ZAVjGpRSoBTwHJcSYuWGRtaEnesRNHbxqd96EnyxS4S0CyQn8ISF87FlekWIHwQvrKw9/lOF3NaWI1JaAElIASUAKeBHQ625NIhL9P/H4B+KVWMAm8fYWJOhImJ1H2Lf0iIXv+sSh9OtgbkWn9Tby/zpCYjSamrjEwOwebVupJO01k3SLXQmZmzGLDOJQrpC/5YQwTtPBGE30+NHBlfW7c4Q7z/GhZ21ACSkAJRB4B9URG3jPVESmBTAlUlZUrDIHDzSuX1gL6i5CisLpOdjdfIu8dY6YZBgZ3JObcLbLeUXZpM6NMx2pAl+qwssOMkmDizBbj2GW1gT517RUO90pMyXsvNK3MMtVlV/WY1iYYLsgxZqDhLuv/u8i0Nug0LCfByaUMA5C7zZ9ZbLgJ55uttri9QzLvMOi5mhJQAkpACeSOQJon8s0V8tdV7TwC/NAZ30G19nlg9ETYEkiSFQjx4omkfCoZC7zRx7SyzVAwUki+t9bAFPFAMqxP6dQ0gtc3MXHmnIFbReQxHiQz1/yzm4mDp4GRLYHHfjAkzI5dT7T8ulBkUgxSoDK7zJvSxnLZQD9SMsrcOMvA5qN227HyF4hLapkC8YmuJpga8RYpM1TKbJEyNH9nsWEmnA1/2e1WKW63od+VgBJQAkog5wTSReRK+WRR80pARaRXLHoyTAn0rQeZyrUzzby/Tv5Jagcr2wxjM3YSL+Ops5IbWwTktTMNfDP4fE/dk+LF5BRwnKyVTJJ/sviPVv8GpgT6Fk/iHAPcsd1IvIoUihSWjNt4Z3s7j/aHEuNx+3EbHONPMl3iYYn+1KmaiQMiSIeIeHx/gGmFC3pwAWWtbcxiw+v/7W1acSqZxYaZbtxZbO6eZ1gC96nuJrxlsZkpcScd4/0cN6fq1ZSAElACSiB3BNJEZO5u17uUgBIINwIUcsw0c08H0xKCzDO9cr+skdxroHhhWKkKixe2s9J4ZqHhWCV5EXaK+KO8/Gi9YXkr14sgbF7BBD17xURcNihrIjHZju/IaWuKtm3HDEyQ6W3GlfzUJejoidx01EDn6hKwXI5LiffztNTntkBlsSmkGtKNWY+VgBJQAjkioPO0OcKlhZVAZBD45A/xOMqGlocvNvHWKgM9a8kmm86mTCtLbmzZCENtxQ0o3kQkCTBP9qIdsqZR1jMyNSHXWr73u4FHpI4Xe5qyWcawPIalZLr8phYmetehN5LCUjbRuOLCc4q7c3XbGxkv/Vky3LRE7JsyXe42ZrF5UNpikHFmsSkq//56y2LDqW8as9iwj8xiM7ip7DD38u8yPaUPS3/VlIASUAJKIHcEvPxpzV1FepcSUAKhT4C7kh277P304w9kWpdTw06Q714f2BlqnPdTZGc2bboIRcfun2+X4XS2Ewz83dRyPEfr/p5hTXf/c7HtoeRObLe9Kfmu3/udU+iSVnGbYQlIekY9zZ9ZbJxsOTd/aXtePdvS90pACSgBJeAbAfVE+sZJSymBiCZAEegIRmegnu+d8+5XlnEEJM9TPDoCku8pCJ33ngKS12kUkI55E5CZZbFx6uW9zGLTtAKsLDYTvk8XutllsXG37fRBX5WAElACSsA3AuqJ9I2TllICSiBIBO78Nl0UZtaFJbtlKlyEpJoSUAJKQAnkHwH1ROYfa21JCUQsAW6eccIBRewgdWBKQAkoASWQgUBa7uxWEz0WK2UoVrDfFPR8uFO/nmT9AAzvc2vB/kEI8uhD9XeUwcKvbgg8v8wAN+yEmuVnVpyC/rci1J699kcJKIHAEdDc2YFjqzUrgaATKCxBwYc2swN5szPcOMMsNJfXsbvGrDS95Lh/A4ApChkcfEQLWGF+WIKZaEa3Mq3MNHzvLesMs8xw5zUDgzMTzvDmsDLh1JAMNZ4ZaJh5pnlF4AbpA0P5MO1gh6qsOd3YR3f2nIFyD/tWV754nnZZbTsrjv3ODmw+RHZg815nTIOkLO/xzIrj3FNexspsO1xHSbv4AqBNZWCY9J91+MNOx5/xRzVahxJQAkogZAnomsiQfTTaMSWQNwLfSqBwBui+va2EspEc2cOamahRyo7zSDH5404D4yQ8D0PhUEDylcKzew0JjSPBvSdfaUr8RuBmySDT/xPxMl5zftaZshLTMUbu4X2sY7ykEjwjm2leXWHgXolD6c5Aw/A73AwTJ391GHz8z7+AZiLirp5hWBtiOFrP7DnMrjNaxB4376w+CPQUAVlLxsCsOAwNtPGInUWHwc8pmGf8YY+JAc0ndASe+FECkEt7FK2MX0mj2Jw50LSCnDPbzuTVBi66QFIyiiDeK/Wwva7T5IZcGsXj5E9m4fWpH+KP7z/PZS16mxJQAkog9AmoiAz9Z6Q9LEAEzMWLJNXLJtnWnHDeqMesSMbE9redd97biVaVYMV4vP4zA22rAIki7JqIYLvjGwN/iYPs/atMLNkFK7vMFR8Z+GGYxIuU2IxFRWiNEu+jZ8YXZ0qYXjp31pmle4CTicBXmw3sF8FK6yFhfRh/0jMDDa9xypsByQc3NcEQOwskFuVF4gV0psGbSx8pZp3sOZdLqKH5Q+0g5I/+YPfTnRWHMSopNLlLnN7PwvIXjRlzrvvUsIRic4l76WTFoaCltRMejH85UDLyMH/2NQ0le4/0fdFOgNl42B6Fpnv3t31nNt+TzuC1KTPx7oxZcLyQFJJqSiDcCFQqXw7tmjdBrerVwq3r2t98JhBwEckPpRKFYeXYzenY6D3gdBRz+KopgUgmYP60GOZzT8IoI+6wZjKnWkyUVh6MHrUoEUJF5De8SXlYgo7BvCtLtcxKY4pnzx2ah8cM7chsNLQdxw0kS6GJEsexhQixTUeyzjpj32V/Z11ZZaBhwHHH3H3gOc/sOZxCp5eTRgHL6+6sOAdFcCZLe+xnU8mYw/47nkf+3Tkcb1jZc/i3xDEGGTfkPa+zLnd/ciwcnUr1VQlECAFTfu9/WbMO/540BVde0gX/uHNMhIxMhxEIArkSkW9fYVp/gK8TLweNa5vulXRm90l8thX7MnaT65iGiNeBHoWsjGuaRreWTwOXvSBei0e6mHCCA7suZXnIDBULdzC1W5bFcnUxPuE04ooUy9W9epMS8EpgyyaY8ofa+PfLMHr09FqEJyfmYPPbQfGsLRcv4ffiVaNgHPu1gXdk2vb+jraXbYYr7aC3BpnxhesKmfGFQm/ednvtY0z0+VlnvN3PPNXXy/1LhpuIF+HHDDSX1cn4++3tPmbPYXaa3lJ2vrQ5uImkY5S/KRSPz19qpmXFoafyDRGOr68AXu5l4pkeJigoP99g5/T+UdpljEj2g17Fm1qIh7QmsED+LjBXN9dvzpXpfv5VekCCpo+UKfs8W0xRjB9xA0YOGpA2nX378BvyXK1WoASCQeDs2SQ89Pyr+OcrE1VIBuMBhEmbudqd/fUNJsoVFdH3lWGtU+JaqZqyTunBBQaWyQcXRdzek/JHequ9UJ0ist/HhrVm6Vs5x7VJ3WqYmPGngaMJNil6BSqKNntOPrQ4tfSfn+1MF6ybH4C1xAvBDwh6FK6RnaCHZcqKHzK0C8Xj3qaSidmb7KmyV+RDhVNTk+SDi5sDuFaLU3Ce99l3Z/+dOy4pHmcsnI5pslP5u5flk6sAme7ODuzDNp/4h7jcL4BxS9b/8edmdzY9ke4A3vz9oajyJZA4R82ZBHfAbv7uZhY03Bslz/a9lfE8l10f2X+a22votDNSxOL1Tew1nO4x0vvqGVjcuceuzT/f3buzOaVdLE7+UKopgTAlQCHZ5bqb8NGrz+nUdpg+w0B2m7uzc+WJZKc4NTZKPIdcp8QpJ+cPNtda8Y87RWazipxG4//6wJR+JuLkA+jnPQboyXQW7PeYblgfciclawW/OLV0ItHe7Vk51eH3qHgjKQRLxxroJAvgubCetV5SS1KlbTUsLwQX3Q9rbuI58V7yQ4jTVNwgwI0DXAPWTbwQ7vseXmj3i33LyoyU05g692PMXDDdEpIs64gq575Vm35Bx6ZdUKtKXXRocrFzWl+VgE8EzJ9/QpRMHQXC3AKS9dOr6Pyu+tKeW0CyfE4EJMt7ts9z2Vl2fXSLR6cup52tsu7x1/3nj9FTQPI+5x6nDn+/qoD0N1GtL78JFC4cg+4d22PF2vUqIvMbfpi0l/o/fc57ywX1bSsDt4qQZHgPx+hBPCLeRQq51pXss2VkByfDbdz0hYEBDexpI17nuqQr6jl3Zv46QHaGUiS2rmyCC+/5x58fhJ3EA8l+fL0FYMgOeij+OGxfe19yAdOOSV+YL9jzvsxby/mV6KhoHD35Fz74bjJGPjUQK/5cmvNK9I6CSYAbaPbLfK14ItXyToAzEH/38R/EvLemNSiByCdQvUolHDgsoRTUlIAXArn2RHK6mh5DBhn+h4QPobeQ9i9ZmzR5jS3eLpBNMbQk8UzSE/BEN9PKcetesM+1Sb4Y13XRKCBXiqfhl72GtUGAuzPpZaRAnSFhOxwrZGvItM0Dnvc55bJ7NaOKYXjvW3Ft96Fp09lZBd1esmYhHp74N7x5//uWZzK7+vV6ASdQRP7DSpb/iELQ+I9eoDa2MT7kukM592zmBRNnJzgr4XhiuWGHIYqcXeV5qVvvVQKRSsCgt0dNCWRCINeeSNY3e5MIRPn84zpHx9aJJ5Drki6UD4lSsfZZCkiua2xfxRaeDOHBBftcO1k0hzKWC+971hLh2tlES9k1unCHhCWROt6V6XIaw3xw9+XDct1tnve5r/lyzM00FJOznl2UZfGLW3THiL5j8dmiD7IspxeVQKgTqCjefcZT9LcxNiQ3yTi7rv1dv7s+zk4slk02XHP94dWmFQjdud67rn3Oea+vSkAJKAElkDMCOZRwduWcHnbsvyvto4un2Oe+325YYUXc642mrLGvdXzXfv1SYsp5Lth36hvyeXrd9BA4O7Nvm5t+/gOZqnZvDug81V4H6ayV+m6b7aWkeJ2c2vb03wHP+5w2c/Lqy87sHm164b7Xx+WkWi2rBPxOgCKN0REYH5G/L5zqvbi6eP/k92KNLA/hjuX35PeCGWT2yMwCw/ickrXOVzUA5mxO7w4zuTgb2/gPm3vjHNcv8jq/Zm20YzxyM5vnxrn02mS6WWJI8veRm+rcm+LYBxoz0rC/XKbi7X0XGQPXYXMHOX/nPdvntb51Tfywy7CWt3wj/+QyADrtghKmjNew7rXP2N+z67O7rB4rASWgBJSATSBXIjI7eG4BmVlZzwX7mZXzdt5z4T3f88tt3hbSe97nLu/P48rlquHgUZlzV1MCQSRQUmYC7pQsMQx1xY1p76+zA23z/YYjBsZKKJ0vJaKBk2WGWWoeEQ/+RhGTzNoyZJb9j5t7YxvXNLs3zv2238DjXU38LlPTFKW3zvG+cc6NobZsjHtgiyFCExk2xTFLzH972xvnnIw07HdWGWpeWp6xfQZO98ys068+8NJyuwdMa5gogSWZ6vHD9fb4GpWTfzZd2XmczX7uPuuxElACSkAJnE9A/t9XCwSBlBRxkagpgRAgwI1pX8jSE8ZJzMyYZYZBxRnYf/hsA08stpeJsLx7Y5vnxjl6LynFGPrnBdlUl93GOXpHGQSd7XhuiuPmuxYS0eFeiTfLPszfzj5lfN+/fnqGGgpMrs12t88ID9xB7plZxxn3v34ycM88A3UkZJhjntl5fNns59yrr0pACSiBgkwgIJ7IggxUx64EQo1AWQm3xfWNx2UjHL2IxUXwVZVNJm6jl37PSXoHbZd+uyrMqW176ljO2djmuXGO8WEnyTrlUrEmHrzIxH9XZsx047lxztnUwvXSDPDtuSmOsxjujDSe7z0z1DADj7v99YcNaxp82zEDEyQBwk4Rq27jRiFxRFocnPOe2Xk8++yU01cloASUgBLISEBFZEYe+k4JRByBT2VzTIx4AP++wLA8htyUxlitnsYsNlxD+dMI04q88O4azxKyozp14xzFKJeMcA3lLSIG+Z5eQU6ZD5CpYifTDT2gnsaoDtydzU1x1zU2M2yKe+93e0rdyUjDNZucYnfee2ao+Xkv8Lirffahdx3IeL1n1rmxmWnlzZ65Ib1Xntl5vPU5vbQeKQEloASUgENARaRDQl8zJ5DukMq8jF4JWQKXSEB/huuh0KPNk2lixyPI987mNa5TZmYp96Y355p7Y5tnphdubHNnsrl6RsY62IbbuNHuHvEScoOe56Y4lns3dTOc01/P95fKeNx98Gy/5/sZ++OMoZusuaRxSt0Z/+yN9rns+mzdqN+UgBJQAkogAwFdE5kBh75RApFDgFPBDHfFqWpHkHF0joDKbKTZbXrztnHOM5NNVnXQu7hinx2D0rNv7BP76u6v53uW8eyDZ/ue73mPY5mNP6s+O/fqqxJQAkpACaQTUE9kOgs9UgIRRYDTze6QWaE0OCYoUFMCSkAJKIHwJqCeyPB+ftp7JRAQAtyAUlqyufjbKhaDNRXtvPq7fnd9nLa++AL3GT1WAkpACSgBfxJQT6Q/aWpd4Ungzz9gfjdXom3LbosmzWSu9ed8H4c5ali2bY5BO0xsf1u25fJa4P9klzXTmT6/TGIuSkBvf9r0AbKRRtY83tTCfmXQ8UBZjPyL/LSkYb1PQgYtlw04akpACSgBJeBfAioi/ctTawszAubkt2C+MwnG9UOAQYNhFJV4OO065OsoKCCNsXdk2+bKL1LTrmRbMvcFGkrgbe5u3iJrKRkD8nI5ZjxGrmNkcPAaEtLno/V2/dc3sfNflxGP5Y+7AL5ftAMZwuowUHjfeiaW7THwaxbx9ztVk7WbUm3DssBnouUZ79HbvYNk9zj7VV/KUeB6ZprxzFbzzmoDD0mGHMa6VFMCSkAJKAH/ElAR6V+eWlsYETB/XAhz5seI+niWBCeUmDPBNB+E64qVsn06wFZWBCHDAXEqmKJxqITE+euMneN+ZEtgt4TQGSXZbAbONHBHOxMHJDVpJZmi5kaWQ3LMTDfMPEPjDuoPrjKx6qAEMG9uYuzXmQu5Ua1MNCkPMNXpmDYAd2B73svsO4xLSYuV/q09aGTINNNfhKJnthqmYrytrQQ4l6a5iUdNCSiBnBFIPrItZzdo6QJFIE1Ejm0rf5XVziPg3iV63kU9Ed4EPv0Expjbgy8gQ4gis8iclDiOX0l+e4joOib5rRmKZ9YgE3Mkl/WTkslmicSR7Jy61pAhgd6RlIH0HDIO5YIbzbQQOtxBPek3Az1r2+rNCWSe2XAX74Y19bzsJhNMReh5b2M5d7dkm6GAfKo7p9zteikQDfmi6KWYdWer4e8vA6XXKAlsP55Zy3peCSgBTwIpx3birx9ew1Wxq62sUIdmH0W5ruMRVVp+0dSUQCqBdBHZTvfY6E9FwSJgrv4NUY8+VbAGncPROt67PeKBLC8z/fQuFpI/FRSNjjFkDoVakgg2tzUWz+K4tqaVwvDFy0xL6Lmvex6XKGynT6QgZN5vz3sTpZ3K4vWkp5TmmWmG09xfi9B1Z6v5cpPthdx7yr5HvysBJZA9gcTlbyFh2WuYFj0OUwvZfyOH73obt0zthyIdxyO2w+jsK9ESBYJAmogsEKPVQSoBh0B8PHBEVEdpVxJl55q+nkeAXsEXeppYKJ7GjX8Bq2WKOjujqKPYnNTXtIQnp72zMubJnjfExPpDkjVHvJKe93It5gOdTCttIevxzDQzb/v52WraVAbOiEc0s9iQWfVHrymBgkYgact8y/u4JqkuXin8GXYb1dMQTC10C+ZH98Kdq95Ai3XXiFfyDsTU7ZF2XQ8KJgHjxIkTZokSEs9Dza8ELrurHb57eYVf6wxWZVPnTrKaHt771mB1ISDtprRqiKhVrvx3AWkl+0p97UeriTJXG2RzZ4rxtSvuDDGZ3cM0jEdk6vyhhRmz6bjvndDRTn/YrILtDR38ubgsxdwZdvjenT2H0/BzxTv5xq92WV4PpK0aExPI6rVuJRAQAs7U9fF9m/Fyyjj8GNU9y3a6pCzEXVFvoFSVejrFnSWpyL64ZcsW6Bx2ZD9jHZ0S8CsBz0wxvlTuixeQO7fXyEYZz7Lu90t3G2gqApJT6xMkbI9jnplmnGw1ZWX6fYN4TfNLQDr90VclEE4EOHV9Uqapp+2qg2vxUbYCkmOjyGRZ3sN7WYdawSSg09kF87nrqJVASBF4fWW6KMysY0tkinuJCElf7YjsKr9/vu/lfa1XyymBSCDgnrp+Waau97imrn0dH6e4v5cp7rvSprjHyxT3Jb7eruUigICKyAh4iDoEJaAElIASUAK+EPA6dZ2H/7UoPu83n0aXBJninvcaSq2bq1PcvjyICCmjIjJCHqQOQwkogfAi8OaKFLy5Uracq51HgCHnxmrEkPO45PVE4vJJsuv69fRd135c0MYp7h/RHZG2i1t/TzP/qbu2arSuicwcj15RAkpACSgBJRD+BDh1vX/yNVi0ahOGyNQ1p6EDZaybbSxatdFqk22rRS4B9URG7rPVkSkBJaAElEABJuDvqWtfUeoUt6+kwr+cH53Z4Q9DR5CRwOrNK8HwPms2rbS+eMxzakpACSgBJRDaBDh1ndNd1/4e0fm7uO1wcf5uR+sLHgEVkcFjH/Itt6zXFn9sW2MJR4pHHvOcmhJQAkpACYQmgfycuvaVgDPFvXrl0tQp7gW+3qrlQpyATmeH+AMKdvcG9rgRK/5cZnWDx2pKQAkoASUQegSCNXXtKwlOcd9qTErdxf2q7OL+Wndx+wovhMupJzKEH04odK1do45wf4VCn7QPSkAJKAElkE4gFKau03uT9dH5U9waqDxrYqF9VT2RIfZ8GE4g1KxItSFWl4LZt3OCZXwH/Z8n1H428tqfUgnHcLyI5i/PK0feX1Fyk59IBGKjAUPi/h2TNJJui5Jz1STD7a4T7rN6HM4E/BEwPFjj5xR3xlzcGqg8WM8iL+2qiMwLvQDcG5px49rbI90X3Jh2BV1EMnZepFnfFx/AnLv/FxHD4j86+Wl/62CiUzXg+s/sSNHTB5h4d42B9lVMMMf52K/t8/XKAE0kXeTyPcDMgSY6TLbP+9rXbjUAppJcsc/XO7RcoAmE+tS1r+PfrYHKfUUVsuVURIbso9GOKYGMBCIt+LK5dDHMdUswJuknGJ06ZxysvsuWwNUNgaLyF7x5RWDtQe/F6X28t6OJJuWBx3+0xWObykAtcf5+vgFIMYEu1YHqJYGP/wAohC8UYdqmkonZm+zyD3QyEX8OeOYnA+UkH3mFOOC938+/j/Xya9ZG4FC89/7o2bwTCGTA8Lz3Lnc1cIo7EgOV545GeN2lIjK8npf2VglEDoGpk+2x8FVFZI6eK4VfIVndseoAcGtrE3d8k7l3kaKPZcuLAKQ92sW0hGDpWAPJIiJ5/75TwNBmwHNLDTzTw8RqEaXDmpu4dY6BWPmUoBjtKh7JG5qY+EtykkfLCfd9Ly038HhXE78fAm5qIWWnGZZAtVvU7/4gEM5T176On1PcmovbV1qhUU4XmYXGc9BeKIECRcDyQoonkuY+LlAQ8jDYkS1N7Bfht/UY0E68fxR53oyexjmbDWut5A877RIDPjEskdi6son+9U0kySqVs/JFsUmP5tdbRHCmCs8k8UzuOA6skfNHRTxynWWfD43z7tt7UtZhSvXFYoAXflYB6e1Z5PYcp64Pzb4fOyQv9VMJ46w81dzpHKnmBCrnWDlmjp0MwslqiGef5rza7yLzu4rIyHyuOiolENoEVq+CMfYOq4/Wq7xX840A1ztyerqwLJHlmkhuorm2Udb3eopMU8Ql7aBMO/Nr4q+GrKcEKE671QTu/s5AahGrnHM/RSnN877KxYFJqwz8IusmH7zIRPHCdjn9njcCud11PW+IaS1RYOvj2ph46TL308xbn/Lrbk5xX4uPMG1XHStoeuLyt/Kr6Ry3886VpuXhd26cIWuPS8jvgPPqnH/7ChMfX53+LK6sDyy40US7Kk6JzF//0dm0ZgkyL3H+Ff4csP6vrpfZinbp7Z5fMvdnVETmnp3eqQSUQC4JGGPHi4gcb93tPs5ldQXqtiFNbc9hv48N0Ku4dDdwnUwzZ2ZLZUNNqVjgdi8fIq+vsNc5cgr78jrA99sNa53lu/3s+uhJWb4X6CyOrzqyQccxz/uOya7wW0SAXtUAoFcyXjbi+MuWrPgNr0350F/VhUU9eQ0YXlKeN3fp0yjwuSufxk1Sw5rb/4Dw/TXyzwfX1N7QxPZmU9R0qMor9hKI6xoDl9Sy3qZ94z8uXDc7XOqhUKLVKgXc1ta01sTaZ4BBcm+rSvYrzzUoC4xuZaJMEaeEb69OoPL8ysXNnzX+zPlqZNtUNq7x98f5Zyuze6tKWa5HbinMaSNkyQi99/z95JKT6+U5sB7aZbXtenk8UpaIrNxvYNFOe8rBkyXXNI+RZSmN5Z9Lt/Hn4MnFBrjchMtVrPXQXp4Vn2mPmvbPQVHpD5/RqFb2M3PX5+1Y/qdVUwJKQAkogXAh8M5q4J3V9ocJ+3z3vPRjvp/+e8b3fxwGur9nWJtm/rGIJeQDf256mUunG9Zu7gTZPEPrPNWwPgyd3ebfbTOsjTSnzvKqfR/XPnq7jx+I3MntD+MH+eRPZlsf6LcPv8EfVYZ8Hf7cdT1WPJBcfkDBwmUJFHAjWwK7ReRTIHSTdat3tTetn4s4UQJ3ShCOP/8CmokgunqGgcdkjSvFIZ84heTDC+1nP0rqoSd8/2kRLm3sn4MPrjKxSpY8DBdRxKgAd0q9NeVeGsXs2oMGJou3btNR4Gb5Z6OH/Mw5P292qay/O1PcXRIW4i6Z4i61bm5AA5WPeuBxXNyuNUYO6i8dE2hZGMXbFhlXVRHr3Ow2888sCssl/oM1Su559AfD8hZzKQntrb4magizZHlWFJNcrkLB+fIv9vrj5ftsltuOZWTZX/6R/OQa0/pnjzMJN84ysFn64xiXo/B3mbMPFJ985u5nxWgO/LngZrgqMoalewxMkX8iD8rz5fnHpJ/fbXNqO/9VReT5TPSMElACSiCiCGT3ge2+zilrZ9ragWALSOdd+qv7Pp71h4A0z57E52+/gpc3rkpr6PWpH4JfkW6DWxRF5zrFcU/hj8StlbfRxomg53OMERFHEUkv4xxZ70rP1JIRJi6tZdf//DLDEg+Dm5q4+UvDmv686ALxUIqYpLCIFu1IT5XbFov3+77vDSy7yUSjcrKU4TcDPWtLY2LdaohHTM7xnxsKyKe6myKu7GtRUheXX1xRL3ux5W7POf4xyt7F/Z8dt2Hx4w/ggzWyUDdAxn9i+FWzQSuYTe6EUVjciF6se01g8S5b/JHhzD9tse2lqHWKMwP0CHNjGsWnI7YZhosb5Lhx7X0R5f+W50LhPVDYrZV/2pwlKJ4snRBctUVwfrge2C6i0W3vDTCRKEJ1mbTL60ULZXxWF8ssw1z5uXhCfi5+HmmiqfyDwJ8d/sxQfPZvYIqIzHxMKiLdtPVYCSgBJaAEgkqAH9ZX3fIImmN1Bk/k+BGR7410PJEz9l2Pl1PGgaIpt/Yf2eBEjxR3zdNzuEc8kNyhzzW1nDo9LksQHKPIcMz5B4L/IKzcD/yy1zhvjSunsel1piDklOk4mcoePtvAi7L2kudYX+VitoBlvTuOMxKAaa29bVHRhLPJy2nT19cuKeKJjHoDpWrWQ/dh/8AjpUWN+dk4nc1/WBxP5FrxRGYWv5kCjtELOJ1NoyePm9KyMi73YFIAei3/schIW0tJDyWXHnA9MQUjZxD4zxujIvxdvMDcBEfzZLnpiL0Zjh7KCRea2HkC+NTlDXV7Jjnd7fmsjohoLSd95hQ2peJe8YCypY/WGygt59ZLP7IyFZFZ0dFrSkAJKAElEBQC/BDnF71Bv63bEJQ+5HejUSKKKvR/DqW3zMdDP7yGNUnfWmLSH7ux6S18oaeJhbLRYqNMW2cXPP4t2SjFTTm965iYv90WFQ6PFhUBbtpYLx6yn3YDJ0XsTJLpWIrTSiIePxKPF+OLMoQUjTFIuUby2UtMyzv6xSb7vK/fq5m7LPHYosgWaxo7pu4lvt6aq3L/e/ZR62ePN6/NIovciBYm1gkDenBp3w42MUqmlLOz2TJ+rm3+ditDbtmluUTlfonpSoYzUkXggh1A33qw+Pevb5fzZDlvO+QZUbDbHscVezNvnYLT81kxQcHzl5qYNcjuN5dALJJ2H7jItLzQT0t8WMhUemZmnDhxwixRwrubNrOb9HzWBBKTEtD//q745sXlWRf0crXVRPl3RM0rgVVj5F9fP1pKq4aIWhX8D6dQ6Ycf0fpcVUEeO9OIZubh8BlghBZkdqZIC66fm0flBBZ/O3ocuMHEH0ZPpOcyhMzq5fQzRY2zbo/luMP4iAiNh8Q75j7PaAHO+wkihjgNzvWVvH/w5/JGjJs2zuTwI274ubdxS/IbKNLxdsR2uNWqJz+/5efvqTfemY3Vk2VO1iO7n9VltSVsV115puKR7COCtctUO0QXy3A62/FMe+vHtVX35HXVhbdq9VxsTBFULFMZ+//aExQYfPh0q6spASWgBEiA66V6ibeC3qC6qbus+aHDDRZ966bvKs3LLk0l7X8CFE0lhn+BYdW3YgauB6dz82q+Cki2QwHhCEOn3V9linuNbJTxPO9+v3S3YU3xcgp9gqyddCwnApJj5Zg5djIIhoB0+p1fr954Z9a2J8ucrEd2PytukuM/FtzUc4+sY3VEI8s4x5n1geflVrVAEGjToAMW/PotBl82MhDVW3UyNhV3XjnpzJyGetayXdHcfZeZcS0H/1tkmJDMjB8oLMNUZ1wM/OCCzMs6dTh5eudshjVtwsDEdJ+rKQElEDwC3eX3nWuhuOh+Qkd7+u1p2fBATwN/v5vJ9CSDiedll2bwRhfZLQdyijs35F5fmf3nwJLdwBIRkrmx/J66zk0fI+keZqtyR2vI6djE0awWCAJXdxuMKXPexJI1CwNRvRX3yzM2FV3hDA1Qo5S9tsHxPvRvAFDcMSPFiBb2wt1tx5jJwvZQ0J3NnXueO/C4IJsi9a5vDfBD6JJa3uNH2e5w25vBPL33yuJeTmN8s1WmLmRxNqcz3PGv2K/M2gwILK1UCSgBa7rquk8N7JaF9/1kkT43XnBakn83WleS30nxVM7dAiv2JP+CeNulqRiDR4DrACuP/BTdWjXA+2evBqd5I804Jo6tW6v61lgDvfYx0vgFYzzqiQwQ9VpV6uLJMS/h9ZnPY8aC99CoZlMUjZUVx9lY3KFkxFcYlU0pO7CoZ2wqxnZiMFOKNprjfWCYBgpIvnKqm+c/22hYwo7b+J1QA5zmGjjTwC75kKFxB11vmeradsyO60X39vyhGeNHDWpsxxKLlja7VLfbYfsVZaj9RJi+JMtCX+mVMf7VT/IfamZt2i3rdyWgBPxNwMmBzZ21h+MN/EsCjE9eY6cyvED+buR1l6a/+6v1eScQ22E0YhpcjmGy8aa/H3Zxe28lf8+m7bquXg8lun4Bel/VwoNAqtwIj86GWy/bNeqEyQ/NtKa0y5SQwFl+NMam2i7eRAo+xqai1S8L3D/fwLPcTZVq/GC44iM7sOtbsjuPO8C49sFtjEvFhc8MMeBkK+B17sqaIh8yFIPfi3i8tNb58aO4S+9eWfPC8A7MduHk6eWuM8cY/4pT4eMkwDG9p/R8ZNamc4++KgEl4F8CjP3243DT+v1jQOR1ErqDmTAurGpnzOAuzbaV4XWXJrOR8B9UtdAg4Exx1+w5Hg8VeQPPGX8Hp4HDzdhn9p1j4Fi4M10FZHg9RfVE5sPz6tDkYvDLF/vPzuy3rmUWm8qJzVVRvI6exgWy4nS0ouF7XnPeO+EYnPdf32Di2aUGen0gayIlOC09lZSr7vhRzSuY1iYeLtJvUJYhBuxsF04dfPWMf+VerOvZpvs+PVYCSsB/BLjmkdktnEX1o7/KmKmGS0yY4tDZpcl4c/yn1Jddmv7rpdaUEwLWFLdMc5eRvNIXLrsa/tzFnZN+5KZsxl3X/85NFXpPCBBQERkCDyGnXcgsNtWMPyQ11cV2rKic1umt/NeyPoqL7yn6jsraqWlrJX+urGd0x496T1KsPSKJ4RnO4Y1fDfwi8aRubS2eR4kx5Zi3+FfONX1VAkog8AS2yqwFd9U6AtJp0b1Tl7s0GQDZ2y5Np7y+hiaBcJri1qnr0PwZym2vNE5kbskF6L68xomk18DzgyKvXfWMR+XpmXDWYHKnJ43hAnjsvOc5TmGzXF76pnEiSTKyTONEykJjtfMIaJzI85D4fCJJApX/ZQUqr+u3QOU+N55FwbRd1zH5EzA8i67k6FJ+xonMUcdCoLDGiQyBh+DvLuRFpGXWF894VGzDPSXtKRjp3XALSNbL8oHoW2Z91vNKQAkogYJIIBR3ceuu68j9SdSNNZH7bHVkSkAJKAElUEAJcIrb34HKc4qyIAYMzymjcC+vayLD/Qlq/5WAElACSkAJeCHg7OIORC5uL82lnUqbus6nXNdpDetBvhMoNPDjczh4LvsdwfnesyA3WLW4hKsZmjeN/cWSGViw8hts2bMRA7sPxbS5k7IdVVyFW3yKE5ltRVpACSiBkCbgueQjmJ09t+4Tq/lCTQcFsxtpbYcSm7ROhfFBfu7ijrRd16H0s5i87mPrpzC66XUh8dOYLHsfCu0/JXHDioREf0KqE3uFS17sX1MfxonTxzCk181oUa8tChcqjOF9sk8en9eNNXnps96rBJRA/hEY3yEK/AoFe22K3Y/xIyRWl1rEEgjkLu5I3XUdSr+nr0+VnbNitw8Pjd/TLVuSNXd2IP5a0ANJAfmvca8FonqtUwkoASWgBJRArgikT3EvwEM/vIo1Sd/ilZRx2G1IyrFcmE5d5wJaBN0SGv8GRxBQDoVT2AN7DI2wUelwlIASUAJKIFIIxNTtkZaLe3ouc3Gn77puoLmuI+UHI4fjUBGZQ2C+FOcaSE5hqykBJaAElIASCGUCudnFff6u69GhPETtWwAJ5G3nSAA7Fs5VcxMN10CqKQEloASUgBIIdQK+TnFfILmu74x6Ay1013WoP9J86596IgOA2pdd2AFoVqtUAkpACSgBJZBrAllNcXPqmtPe3Vrp1HWuAUfgjeqJjMCHqkNSAkpACSgBJZBbAu5d3IP2XAnGKilavSVKdP0C9FqqKQGHgIpIh0SIvDJnbKjYzGkdMHDY8jx1Z/3qt6z7m7TM25qZUIrVlScgerMSUAJKIAwIOFPcr7z0L6u3d/Z/MAx6rV3MbwIqIvObeDbtjW0XOisMZk4D8tqfqYcNa8TDQ2hc2TwCvawElIASUAKpBKLK1FYWSiBTAqGjWDLtol5QAkpACSgBJaAElIASCDUCARGRFYvJ+okcBlSPEodV9ZKhhifn/Tl77iziiggANSWgBJSAElACSkAJRDCBXE9nv32FiTpl0slcM8PA0QT7/bT+Jt5fZ6BffRNT1xhYfxhoUgGYvdG+PqQpMLp1xrSCLywz8EgXEx0m29Of6TVnfTRY6lq4A9h3Kuty+XV1zeaVqFutQX41p+0oASWgBJSAElACSiAoBHItIquWAH7YCUxda4u+44lA7dJAh6qAIwPnbhEB+Rdwb0cTTcoDO48bWHUA+GIT8PNeA89dYmL/aeA/PxtwNk60qQzUkno+3wDQO3lNQ+DwGWD+dpvP1fK+hIRg/FSuNyoH3NHORIuKFKiGVb5ScVuset6XF7rxCacxY+F0DO+dfe7rmQumo0fby/PSnN6rBJSAElACSkAJKIGQJ5BrEcmRNRYRN7iJia3HDMTIxPgU8UDuOgGULmKP+3q5lnDOQIU4oJBc5zQ37eRZ+ysxGTgh4nPLUaBy6rVHxRvJ8qVjDXS6wEStUrYovaQWcPYc0ENej4nHs199YJoIWArNKiIcR7Uy0VzE5NI9QJ+6IkRd9z280JG10ngOzBGPFIY8zkxEcgqbHkiWK1msNPpdfG0OWtGiSkAJKAEloASUgBIIPwJ5EpHRIgyLiVcwTtY/XtXQxG4RkNfONPDN4PSpah7N2WxgUGMT327NHtCATwy80cdE68oiCmUK/FA8EC0asFM1EYpfGShVxERT8WqWiBWPo3g0J3SENXV+vdS/eBdwzzwDy24yM9yXfavnl4g79DYGP/qBJR6dq5fd1c45zPDKNZCcwqYHUgVkBjT6RgkoASWgBJSAEohQAnkSkYt2Aq/8Ynv5RrQwULywicLRQKx8eRo9hr6amapBE8TzuHI/8ItMfRcXsfp0dxPxScB/fzXwf53ShWqh1LqTM7nP13bd5eIr3IIPJgyzprEdT+R3L69wF9FjJaAElIASUAJKQAkUWALiS8y9DW0G/DTCtL5+3mtPOy+80TxPRHKKuZR4Dh+8KF34+dLqW6sM9KwF/KOziZYVTVC0cm3lXe1Na3qcwnSzTIU/LNfd5nmf+1pOjulh5BT2B4/PwbA+2a+HzEndWlYJKAEloASUgBJQAuFMINeeyD4fnu9a7PWBYXkiz8paR9oU2ZntWPf30jfPOOeGfJ5+nRtsnJ3Zt81NP/+B7PLmekqnzndWpx+znpu/tL2Up2SdpWPTfwc873Ou5ebVEZO5uVfvUQJKQAkoASWgBJRAJBLItYjMDIYj9jyvc2o6N5YiTkZ3ne5jpz63gHTOed7nnNdXJaAElIASUAJKQAkogbwTyNN0dt6b1xqUgBJQAkpACSgBJaAEwpGAishwfGraZyWgBJSAElACSkAJBJmAisggPwBtXgkoASWgBJSAElAC4UhARWQ4PjXtsxJQAkpACSgBJaAEgkxARWSQH4A2rwSUgBJQAkpACSiBcCSgIjIcn5r2WQkoASWgBJSAElACQSagIjLID0CbVwJKQAkoASWgBJRAOBJQERmOT037rASUgBJQAkpACSiBIBNQERnkB6DNKwEloASUgBJQAkogHAmoiAzHp6Z9VgJKQAkoASWgBJRAkAkUqlzcwMFcpiQMct8D2nxV4aKmBJSAEohkAstX/47lq+RLXmmvTfkQHVo1Q4eWzSJ52Do2JaAE/ESg0MzrCqFEiRg/VafVKAEloASUQLgQoFic9P5M/JIqIgvHxGD8iBvCpfvaTyWgBIJMQKezg/wAtHkloASUQDAJjBzUP61593HaST1QAkpACWRCoFAm5/W0ElACSkAJFAACF7drDX7RnNcCMGwdohJQAn4goCLSDxC1CiWgBJRAbgi8uSIlN7f5/Z4KLftZdYZKf8a200kyvz9krVAJBICAisgAQNUqlYASUALZEaBge3NlcnbF8ul6c7udkOkPoEIynx69NqME8kBA/93LAzy9VQkoASWgBJSAElACBZWAisiC+uR13EpACSgBJaAElIASyAMBFZF5gKe3KgEloASUgBJQAkqgoBLQNZEF9cnruJWAElACSkAJZELgdPwZtOs3OO3quzNmYdFH76BYXNG0c3qgBNQTqT8DSkAJKAEloASUQAYCFIu3D08PPH/TtQNUQGYgpG9IQEWk/hxkSqBlvbaZXtMLSkAJKAElENkERg6yhSMFJY/VlIAnAZ3O9iSi79MI/LF9bdqxHigBJRA6BKIMoFoJYNeJ/OtTMNrMv9FpS94IUDzSA0nTaWxvhPScikj9GfBKYNOuP3FBxZper+lJJaAE8o9AjZLAlP5mhgbnbwf61Qc6TBY1mQMb3BRYuAPYdyoHN6UWrRgHzBxo5rjNnLekd7gJ9J1+DntPZXz+7usBP07qazXxv4lJAW8qJw1ULW5gzlCVMDlhFoiyOp0dCKoRUOecpZ+hU/OuETASHYISCG8Ce0XwjfrKwA87gSSJTc7jj9fb4rFNZeCaRrIuKVVLdqkODBGhWCj1L/uF1YBxbUzLa9muCnBHOxN3tjdRuzRweR3gxmY2G8/7HGKsf1QroIIISMfcbbKd65vYdfF6o3LAJbXskuwHrU9dWO3Z7/R7TgkEVUCyszGykYZfIWZB5xJiPILVHZXxwSIfou0mJiXig2/fwfpta/DKPe+GaC+1W0qg4BA4J5kRtxwF/joDOMeVi9njf7SLaQm80rEGksVZdWtr0/IyDhVx+NxSA8/0MLH6IDCsuYnnlhmW2KxSHOheQ8RlW9OqM1oUqPu+Kz6yFelltYHHu5r4/RBwUwvguk/t8+42u1Q3UaMUkCx9pJj8UMTt3y8ykZhs4G8dTKzYZ+DhziZun5uqcgvOY9ORKoECQUBFZAg85m9//gKrNq/A4WMHkZIif42DYAeO7EXxuJLYsnsDena4As/e9jpiY2KD0BNtUgkoAV8JDPjEwBt9TLSubKKqiEN6Ks/KF6fA14p4/HoL0KKS7Zn847B97f11BqpJ2WMJ4iX80LCmqN33lSgMnDwLbDoCUPoViwFe+NlASuqMqrvNJhXEu/mNYYnR968yLW/pE12BoU1Nqx/0fLKOVQd8HZGWUwJKIJwIqIgM4tM6dOwAnnjnfpQqXgadW/RAtQo15A91cETkhp3r0LR2S9SsXAfFi8qKfTUloATCgoCZKu4OxotHUI4n/mqgaQUTI1ua6FZTvIhfGJghaxkdK5TqFHREoed9iSJCaTXFwzhplYFSsSYeFO/iDZ+nexOdNuNlmVxlEaTFRXjyXMI54MBpgFPnj/9ogF7LjSJG1ZSAEohMAioig/hc//PBk7ioeXcMvmxkEHthN63hfIL+CLQDSiBPBF5fYeDlXqY1hU1h+OgPBgY2MvFuP1tA0ju5WabFOb381m/pgtDzvv+utLtxSgTiLSJEOYW+96QIRC/7Kt5ZbeD+jqa1BnPGn/Z9S/cAnAr/ajNEfAKLduRpWHqzElACIUxARWSQHg7XHB44ui8kBGSQEGizSiDyCKz+DZFeUdsAAEAASURBVOa634E/5Kta9SzH13aviLtqY7Ms4774yi8GXvnFPrNfvH3OzuzbXOsNL51uoIj8VadHkNZ5qr0OkkKQ9t02w/IanpLp6slrbCHJNY+e97Hsyn32/ZzOPp0qIL21Of13wxKRnEanPfOTrMX8yT5m+2pKQAlELgEVkUF6tht2rker+u2C1Lo2qwSUgF8JHNgP8/GHYe7bA6P9hbJdOtqv1eekMkdA8h5OWTvT1k4dFJDezH2f+7ojIN3n3Mes3xGQ7vN6XHAIFJV/NIrL1yHxgKsVLAIqIoP0vDft+gNRQfygCdKwtVklEJEEzAl3ypbnSxF1y/98Ht/KFeIeXJnqvvP5Li2oBLIn8PYVJrhB6rrPbE/wlfWBey80cd/3huyYz/r+bjWACbJEod/HmXuRR7bgbnx7GcO74tGm95tLJ7hRS61gEUiNJlawBh0Ko61crhoqlpEgbGpKQAmENQFz9qdAmTIwbhkT1uPQzkcOgaqyN7KWxAJtWdEe0wgJ8cRlCaUk4IZnbE+uX20qu+xpFIcHxJs4R9az0hqUBUa3MlGmiP2e31kPw0NNlHW1XBM7XnbgR6dqx/4NAMYmpXm2w/ihjCPKEFNskzZC2iscPKe93Qn9nicC6onMEz69WQkogQJP4JflEmG7V4HHoABCiwB3zo+SuKHcYFW9ZPqSg7f6ZoztuV+C2VNwvixrbhkv9GiCYcX8XLBD1s1eaWKTbMa6WTZY9ZD1tlzywOUNe2SjFcXlJBGSHd81rID05SQe+Q3inaxXBrhqhoGnumVs57CI09IiRpktqaeIyB3HDYyV9qakrs0NLXqh2Ztf1qxDigRlvX34DSHTQfVEhsyj0I4oASUQlgQO7INRo2ZId50ZanpJhppBjYG68iFPo0eJ2Wj6SkaZqFRPUifxIvWQodwggcO5zo0eKJahR0otvAhwl3xbmeyiMGSwescY2/PBBQbGyYYseiCnycaoOvLzMbChibWyySp1Dxaulvc0/mwY8nVFPacG8Vh+aWC5TItz2nvWILscg+EPkTBQFK/8OfJsZ+5WA/Xl56ijXGM4KMYQ3ZmPud/Tex++R03q1UG3jqG1l0JFZPj+PGnPlYASCAUCTBAQpCQBvg6fGWqeFM/QoMYmGBSc4oGvfeqauL+TaYkBepZe6GlamWbukfVzzJX92bUmetU2MVnCBDlTkL62qeWCS4BhmU4kQsSg5F5fa1hCkD1yYnsyDijFHIPQc7NVV/kZYcYhx+gpdOKOTlsLK5A8rzUub+dQf0EyII392rCmp500m7zOe2ie7TBne1GZ+4yV6esvZbqc095M5anmO4E1f25C/VryoELIVESG0MPQrigBJaAEAkXgiHiKmLpwt3h/+tU38R/JQnMkwfY0tZasNpeJp3LuFoAZaagDmopYiBNvZJJoZIYI6t8gVR0EqoNar98JzN5kZzH6dmt61U5sz6e7m3Bie3LqmuJv/vb0ch//Ye+2fvYSE4Ob2gKQVyk6d8nP0HdDZF2kTI3T4+mEkEq/G9Z6ScYQddrhLn5OgzOk1IeSNYn2+cZ00eq+N6fHp+PP4LUpH+b0trAq//2Sn3Hk2HF0vbBtSPVb10SG1OPQzigBJaAEAkMgVv7ac2qSu3YPxxv4l+TVnrzGTn94gWzEoMgsJ95HTmHzo32vrF2jbPxIvFNcy7ZexIOanwgkiHovIlADZO5d0k7w+IunpAs2z9ieTy2RNYxL7M7M3gjMThV3V8vaRi5rOJOUsaPMguRsiHHCO/1PshvRGHPUMc92Bs5Mv+bEHHXK5uaV4nHyJ7Pw7oxZ4PH4EaGzVjA34/F2z+59BzBnwY94dcoHeOPJh70VCeo5FZFBxa+NKwEloATyhwC9ij8ONy1BMPNPezqRu3HpReJ0JjdWPH9p+ho35tZmtpkHJOUhd98+LUHEIevg1HJJYNMGmO9Pg/nzUmC/gEzxLbzTmHa3YWL723LZqPfbchLb01NAOjU64tF57+01J+14uz+rc+fWfYJu139hiUenXONLr3IOI+I1OjoKVSpWQKc2LfHpxBdDbiqbkFVERsSPmg5CCSgBJZA1gaPiaewvU9XOh//orzJmt+Gax+V7bY9kn3qwNj3cP9/2OFFoUhCo5Y6AuXgRzDvHwrjjbkSNHgdUlQWBPtrEiR5uQB/vi/RihZoOwqJnrs7gifzj+88jfdghNz4VkSH3SLRDSkAJKAH/Eth6DPh1f3qYF6d2d5YarlXjJowasuHinnlGmmh0RKdzj77mnID57JMwXvwvjG49cn6z3pEpgWJxRa0p7JGDBlhiMtOCeiFgBFREBgytVqwElIASCA0Ci2QX7KKdMh2dhTF+nzsPdxZF9VIOCJiL5sOoVCUsBOQ82SwjM6jWzmpusnp1RdY/MznAENCijpgMaCNauVcCujvbKxY9qQSUgBJQAkrADwQ2yxbp5rL4NAysZKyEglps4KXlBoY2A9pUlkDk4pm+TTLU8NgxxhttJTv6+UrzltnGvqLfI52AeiIj/Qnr+JSAElACSiB4BJJkTWNcseC1n8OWdxy3N1sxhiTF4V3tTaw6CAyX1ImMC3mnvGeMSRpjPq49aHjNbGOX0O+RTkBFZKQ/YR2fElACSkAJBI9AsuQKjA6fBNHvDTCRKBvHl0n8xw/XMz6kIWkK7V1V3WqYaFwOuFvWzFJAPiWxJr1ltuHuf7WCQUBFZMF4zjpKJZCBwPFnX8jwvtQD98LzXIYCgXoz+FbAoy+Baspdr7fx8lx+2th2obOaqO3s162hr+x/e34iyLStUGKTaSf9dWHHNpgrVwAHD3itccyKZL+H+PHaUOrJG2cZ2HzUfsPsNONkKnv4bAMvXmZaWW8oMCuLYzUmVRfbmW0k8PivBlpUNDULTVZwI/CaisgIfKg6JCWQHYHjz3kRkR7nsqsjnK9bItJjvPktIskvVMSSmbqBon0ICdtw/vnyte/mvx6H+fWXMLrKru1q1e0k1b7enA/lNh0BTkoM0UmSmYapDSuJePxIvJMPSKpMJ70hM9twbSQz2zAM1BeyBFSt4BBQEVlwnrWOVAkoASWgBEKEAAUkTp5E1DxJFVNY0ghlYvkZJ9IziwzjgzIDDbPTOKGeJkgqw88lq00zyb9OYckymWW2yWRIejqCCKiIjKCHqUNRAkpACSiBMCDAKWzxQGYnIENlJI6AZH+W7jYwpo1p5cF2hwDKLLNNqIxB+xEYAioiA8NVa1UCSkAJKAEl4JUA10BaU9hZeCC93hgCJ5fsBpaIkFRTAiQQOiu79XkoASWgBJSAEigIBLiJhmsg1ZRAmBNQERnmD1C7rwSUgBJQAmFIwFBvXhg+Ne2yBwEVkR5A9K0SUAJKQAkoASWgBJRA9gRURGbPSEsoASWgBJSAEggKgarF1WPpDbxy8UYl/8/pxpr8Z64tKgEloASUgBLwicCcofox7RMoLRQUAuqJDAp2bVQJKIGIIZAigfKY2k5NCSgBJVDACKiILGAPXIerBHJDIKZZU8lzFpoekUJ1akucieD9KTP3SpLhCpVyg1XvUQJKQAmENYHg/eUNa2zaeSUQ2QSK/+0OlP14ujXI8ovno9zXsxB9wQU+D7pQk0YoOuT6LMuXX7IARQdfl2UZXy6ynqhyZe2iInQrbd+AqFKlfLk16zKnT2d9nVdXLAfiJBdcnbrZl9USSkAJKIEIIxCaroUIg6zDUQLhRiD6gmqIrlkDRXr3QqG6dXDmw0+QvG27NYzYS3vAjI9HTOtWSJw3H+c2bkJUpYqIGzoYiQsWImn1WpT852OIadUCyVu24ezPIrTEjJIlEDf8RiRv3YaEOXORMPNzJP222roWN3I4zq3/ExSfZ5csRaHGDWEUKYKUg4ekzkWWFzRu2FCkHDiIhK++tu6J7dVTPJAemw6SziHhs9lIiT+NuBE3WvUX7tEVZ959DynHj1v3ZftNxKM5bTLMN19F1KoNmRffuhkpzzwBY8QtmZfRK0pACSiBCCagIjKCH64OTQnklUB07VpWFUbpdM9e8XvuQkyLZkjeuQvFJ/wNBxo2R4WfFiJl/wEU+9t4nH75dURVlundmBhEVa1s3c9vFX74HilHj1ritNDEppbIoxgt9cKziK5XxypH4cj7i993N879uQGFGjXEoYu6o9TLz6NQPfH2SWy9Ilf2xbkdO1D8trFI/utwWv3OQdEbBuHkY0+ixKMPyVrFFJhJZ1Hk8l74q+8Ap4j3V0c8TnsHSPVCmm++dn7ZpCRgy0aYy36Cccc9MAZcc34ZPaMElIASKAAEdDq7ADxkHaISyC2B029Msm49+eAjGapI+OY7HO7TH0bRoojt1sXyGh66uAfi33oHccOGIOGTT2EePWZ5BZ0bz23ajOjqFyDx+wWIf2eKc9oSpMfHjMeJuyaknaMH8nCPy2GeOo3Yrp1RuG0bmGcSgMSzoGexaL8rcObjGTjUumPaPd4Ojk94AKdfeg3RdWp5u5y7cyJ00ftKRH37I4yhI3JXh96lBJSAEogAAuqJzOeHGJ9wGgMe6JbW6syF0/HB43MQV0TWVakpgXAiIFPHtKQ/ZMpXPIRch8hpcDNBxB7NY7NL8o6dOPPRDJR4/GGUevVFu4x8NxMSEV2tGlA4Ju2cc2CmJFuHZvwZnP1pKc7+uESmxUuiaH8RcRXKy31VnaKZvprcPe2LFSsGY+x4GMNGpk1n872aElACSkAJeCegnkjvXAJ2lmJxWJ9b0+of2GOoCsg0GnoQjgRSDh5E4jfzUGHtChTp0xsnHnnCWscYVbYMSv776bQhRTeoh5IvPGN5LxNlTaRjp9+ejJLP/BMlHnvYOXXe66kXXkIR8T6WevHfKNy+LU698joKd++K8ou+O69snk+kismoJb/muSqtQAkoASUQyQSMEydOmCVKlIjkMYbc2OiNHPxoX6tfke6FnDrXng4d3jtdOIfKA0lp1TDrjRP51NFg9GNnuYwevBp/7YXnuZwOn1Pb5pkzabdZ78/J+sFUjyUvGCLQTI9dzyWffAwoVAgxbVvDkFdOY3s18Wwass7STEy0LzPkUIop6x5tb6XXezI56W28PFdQzVn7qZ5X//8EmKOGWV55Y1L6Eg7l7X/OWmP+E9iyZQt0Ojv/uVueR3ogaTqNHYQHoE0GhIBbQLIBz/fWOQ8ByXPcfV38gXvB6e6T//wXT3k3mZZOE5As4RKn3m/Qs0ogBAg0aARUyfhPWwj0SrugBPxCoECJyDdXpODNlTn3WviFtEclRoodH+8/E8VTEwI2tm00xrbT1Q0h8CgKXBe40YZfakogIgn8vgbokr4OPiLHqIMqsARUNQTp0ZtRMq0nX2pKQAmEGAGG+vEW2ifEuqndCX0C5rxvJMLAKRidOod+Z7WHSiAXBAqUJzIXfPQWJaAEChABikczNU6krg8sQA/e30PdvQvm3C9hTvovol6Z6O/atT4lEDIEVESGzKPQjigBJRBsAsxS4xg3PBU0c4+/oI3dL+ON5keqbPaSNZDGhRch6sPPNSWmX8BqJaFKQEVkqD4Z7ZcSUAL5TsAYe0eaJzLLlIf53rPANuhM36v3NbCctXYlEGkEdE1kpD1RHY8SUAK5JkARZWWiETGppgSUgBJQAlkTUBGZNR+9qgSUQEEjkBpsvKANW8erBJSAEsgpARWROSWm5ZWAElACSkAJKAEloASgIlJ/CJSAElACSkAJKAEloARyTEA31uQYmd6gBMKfQKn77z1vEN7OnVcogk4UtPFG0KPToSgBJRAiBFREhsiD0G4ogfwkUErSDHqat3OeZSLpfUEbbyQ9Ox2LElACoUFAp7P9/ByiDKBGST9XqtUpASWgBJSAElACSiDECKiI9OGBXFgNWHCjiSvqpRf++GoTb10hQWU9rHQRYMbA8897FLPe3tXexPdDTZSRe2hli8J6f0e77O8vJE9u8XATJQrb9+p3JaAElIASUAJKQAnkJwEVkT7QLilCrVgMcFMLW9y1rAjUKg1UK27fTJE5ro2JaiUyVnZVA6BdFYCC77rGwCW1Ml6vIvdTBI5ubdc7qpUtCqum1tOtBjCsOVA4GmhWAbistn1/37qSBEHa/2YrcOYcLBE6qhXQoGzG+vWdElACSkAJKAEloAQCRUBFpI9kzyYD1WWaml5Dir74JPtGCr2XeppoWQn45BrTEoy8cs+FJu7rZGLfKeCNPqZ1z98vMvFk94xeRtZzeR27Lr469Y4WQfmvHib61Tfx3RATFYsBj3U1wenyR7qYiBNR268+rNfPrjXRq7aJyf3MNKFp16jflYASUAJZEFixHFa+8BU/w+SX5A6HnFNTAkpACfhCQEWkL5RSy2w9BowRj2ObysDSPfZJvn69BSgfZ3sca5Wyz9/QBHh+mYE9J4Hm4kVMEI8hhWgn8Vq6bdcJoIhsbxrSFIgVj+NuKU+7UgTiHKn3uk8NS5iKdrTs7g6mVdeqA/Z7ekUpKJNSgHPy1b9BRpGaepu+KAEloATOJ9CuA7D6N1s4UjzymOfUlIASUAI+EFAR6QMkFjFExU1ba+DqhsDxRGC/eBhpt7U10a0mcPd3BtzybdMR4Ha5Rs8hBeTK/cDrKw1M+s2Rg/b90fL2p93AXSIO+cryNIrP8rJGkgKT0+Fs89d9wCCZFmc5xyg62e5H6w28vcrAlDUZ63fK6asSUAJKwCuB4SPTT7uP08/qkRJQAkrAKwEVkV6xeD9Jj2OSeBNnbUy/vnCHgaIi9N6VqWSasy5y2GzDEp5Py/T1WyLuetYC/tFZpr0ruqWmdQsm/ipl5fANeXWMYrO5eBkXyoaejX+Jo0AE5LsiYiky31mdXu5wPLBoB/CATJVT0DrrKZ169FUJKAElkBUBo1NnuL+yKqvXlIASUAJuAsaJEyfMEiU8doS4S0TQ8ZsrUvDmSlGBfjYKO35xOjkz43V6FDmlnROjJ5KezOyMm2/Yfsr5GjW7W63rY9tGY2w7//9PMXXuJKv+4b1v9akf+VkopVVDRK3akJ9Nem0rVPrhtXN6smAQ2LXTHmf1GgVjvEEepbX2VPpgjB2fp57wM02t4BHgZ/34Dv7/vM4pyS1btkAkilpeCVC4ZSfeeD2nApL98kVAslxu6uZ9akpACQSPQOLipUhY8lNaB4pcfJF17D6XdjECD7yNl+diO3eKwNH6f0iBcIr4v5daYyAIhIKI5LhURAbi6WqdSkAJKAEfCFAsHn/uhfSS99uHGc6lX428I2/jlXMqIiPvUeuIIpNA8P2hkclVR6UElIASUAJKQAkogYgmoCIyoh+vDk4JKAEloASUgBJQAoEhoCIyMFy1ViWgBJSAElACSkAJRDQBFZER/Xh1cEpACSgBJaAElIASCAwBFZGB4aq1KgEloASUgBJQAkogogmoiIzox6uDUwJKQAkoASWgBJRAYAioiAwMV61VCSgBJaAElIASCBEC5eNgZYHLz+5UKQ4wEYhjPK5czHkXGa8qIiPjOeoolIASUAJKQAl4JXBhNWCBpNC9ol765Y+vlpS8V+QyxVl6NX45GtwUoOAKlDFb3IxrTFQUIZkfNmOgif71gQ+F8aW10lvsXdc+l34m/I9URIb/M9QRKAEloASUgBLIlEDJwkCxGOCmFrZobFkRqFUaqCbCrY8Im2YV7NS9N7e0yzkVUXyOa2OiWmpmZHrShjYDeL9jl9W263Ded5PMmcOa2x44pu0d0cK+wrraVQEuvgBoU9kuU1v6wHN3tDNxZ/t0QdtJyrL8cKmnhPSdVqsUcFtb07rXPgOwXI+awA1NgKIyvjJFgFGtgAZlnRL26+1y384TwPfbvdfjOYbG5e3+sf801je6lWnVz/fVSwJjWptgOVpx6SP7yr7Q5m4xsO6wfXxBCdPqH1Mfu82zTve1cDouUBlrssptHU4PLRB9VTaBoKp1KoH8IxBdswbMk6eQcuRIwBo1YmMRVbECknftDlgbBaJiUwST4aEqAjxwpsal+KHQGi0CKD7JbrBXbRNVRST+b5UhAszEu2vsflEMPtPDxOqDFFQmuk4z8O1gEwdOA7e3BR5eZIg4Mi1xFy3uqM7Vge3HgJEiRHeftMXc4M8NKWtiitQ5QupIlpzPxURwNS4H7D1FYQY8v8wABZbbE8l+NBGBtl/aGtMGuHS6gQ+uMrFK+jJc6hn7tYH2VUyrrUPx9r1L9xiY0s/EQbmHfXjsBwPfbbPH2EXGMk+OKQo966EwpUB1xrDhLwO3Ch+Ok+L03nkGJl9pYtNR4OaW4mH8xMAn4tVcvpftmLhxloFXepk4niiiXDg2XAcMbAScOWdzpKBOTJb7GogXcr19rpGM311nDxmfrymOA/xjkuPqC5SIZK7JUMk3meMnpTcoASWgBFwEYlo0R5lp7+Bgy/Yo+dzTiLtxME489CjiJ091lUo9jCmESpvW4VDLDkg5fvz86z6eKdLvCpR89kkcqCufrmJFevdCiacex6G2muvaR4R2sT27xB3XPke3+KPwVhF5Y8SzSE/gop22R5GicWJfE1c3tAVjiuhb2tI9wNdbgBaVJD+yiMS+9SQdpXgir//MQFvxHiaek2vikRw9x8CRMwCFEb2Jc+SeJxcbWDLCxEXiKfRmbPvJJQbmD7XLT+gIvL/OFlhO+cXyf8p93xtYdpNp1T3pNwM9RfDSutUwcbGI1rnS1hPS1s8jTTQV0Rkn3sgkEap0ivRvYIqItOukcF53yBZqnvV4joGicvYm4D8/G7hWxCC50Ch0qfsprk+LAKcX9cP1Ipzl14lfFL1LpM8f/2GIiEyFKPf96yfDEtVvCWPHPOvkMoOZfzpXw+u1UHh1V3urBJSAElACJGCUKI6o8uUQ06wpil4zAOf+3ICEL+ekwSnc6UIU7tQRZ97/CMn79yPhs9lIiT9t3Rc3YhiS1qyFUUQ+XZOTYcbHI6Z1KyTOm49zGzchqlxZsEziN98haZ18UkZFIe7mEdb5tAbkgGXPfDIThRrUR6HGDa36Ug4eQuKCRe5i/jlesVzmPjv4p65g1nL2LMwfFiBq9Lh87QUF0LS1Bh7ralqib794AjktTU8jvWCcVqbXzTGKqW41ZQr8CwNc40ePn/wYWN48CiZ66ngfPYicKm9Q1sQe8UCWL2qXofA8LOKSxqnm0rHAX6nvec5z9qtQetO8bE1js172u6TcO076M3y2gRcvM61zFK7l4mzPKm+lZ5My7SPx9pWWH+v1qdPJrIuir4Z4GxvLPZ71eI6BfeQYOI3espKJtQcNJIvneOKvhohm8UiKo5/ietsxAxMutKfJOe4vNxn4WwcTj3dJF4tsm95JcURmGO+O4xnr/EFEdbiaishwfXLabyWgBJSAEIiqIJ/oheUTT6aajTj5VBUrMuBKlH71JZz97TcUu/M2HKjTGEVvGISTjz2JCr8tQ8qhw4iuWgVJIjxxNgkxLZoheecuFJ/wNxyo1xQVlv2I5H37UOxv43H8jrtRbPw4RFe/AEaMfKq7LKZjBxS7ZaRVR/H77raEbKFGDXHoou5I3rbdVTL3h+bSxcDUyfKJ3hpGuItICsjH/g6jz5VAzdq5h5LLOyl+HroYmLXR9io61VDEXFIL+FEcpI4t3GHgusYyvS1TxLTi8uiX75F1heI95Gw8p5Tf+93AI51NRIuKe0NE1qTfgBd6mlgom3g2/gUs3CHiTgTW/CEmxDmYQURalaZ+2yxTxQ9LPXNkLaFj9BDOk/vWHwJ+2g2cPAtMEm8exWkl2eFMD+rzl5qYNcju37EE8a5Kew9cZPfnafEAYp9d21apv1kF0xKYnvV4GwPrnXO9iZX76VkEBjUGnr1ExiBNzdsO9K4DxESbMk0NrJBpba4r7VPXvr5gp4FG5e0+sfUbm5mWB3em/Ko55lnnF5ucK+H3qiIy/J6Z9lgJKAElkEaAXj/z2HEkfDwTyTtsl8a5dfLJJ5+hUcWK4+TDjwMp/AiXD76WzcF1jYcu7ILSb7yK6HryaSiWIB7H4/fcj0ob1qJwl4tgFJdPaRGXSEpC3ODrEdOkMY5cNxTRVapY09nWTR7f6IE83ONya9o8tmtnxOdRRDri0XplW0miIt70aDRc3lJ1yRQ2PZAUkMaDj+Zrz7k20Jna7TxVfjBS7eVfYK2H5FT0MhGIblt1QNY5SllO4zpeQ9bBdYX03tF+F4HnrKF0ynD9orvMVTMMK8wN12R6WofJdl9u/tKwNqe4r3Nq+KGFBpz7WC839jjvuRmG6xLpkexTD9bGmfvn22XYF2dannW+IFPT3CldVjyMnvXwuucYur9nWN7TM/IrQLtaxkBvqvO+5/uG5X2lh5M2+quM1z/90x7XdBHZNHe/Z2+0z3nWaRUMw28qIsPwoWmXlYASUAJZEaA4PPX8SzDKlkHJfz+NM7O/sIon7xXXjMwPRpUpgyi5lsGSbGWQvFUUh4ie029PlunrckhatRpl2rdFdLWqiKpSOcMt3t6YKV7UgreCBekc52RlDaQ1hR0ED2RWqLtUB+Ll0T/2oy1u3GUpxNxijNccAemUc8Sj895bGUf4uct4Hp+S/xEc+1U8gCfOpgtI57y7HgrYqxva09T3yDS80093Gee+XbIz+99LDWv39Efr04Woc93bGBzB6JTxfO8IyMyuO+f56q1PPO9ZJ8+Fm6mIDLcnpv1VAkpACWRDgLu0i91zp+VJ5DS1eUoWsIlxGvvssuWo+PtKyztpTWd71JW8/wAS5n4rHsenYERH4/h9DyL+3Wko9cKzMBMTPUoH7q3RqbPEcJEv93T22PGBa7CA1kxRxXWEoWSvr8y+P/tkDeRtc7Mv54zrc5nCV/M/ARWR/meqNQqB1ZtXWl9rNsmHldhUTELLem2tL+uEflMCSiBPBM4uWYr91ezp6IMt2mWoi9cO1GxgbaKhoKTtr1LLeuUU9akXX0Hc6Jtx9qdlOPnoP+3zrjLHbh5jTXubUtaZCj/13H/OE5HctMMv2qn/vGy9HmzYwnr117c0McmNNWp+J8ANJNy9zDiK/jRO4ZaVeo8k2K8M15Pfxql4xmP8U9ZnBtIqyuoPrrXMzrPYRby+3PXuzfMZyP4Fsu6oQFaudRdcAhSMf2xbkyYmecxzakpACeQfAUdAultM/GkpivTtjYRPPsWpp59zX8pwbHkdU9dS8kJ+eiEzdMR5E+6bapxxhNArw+Rwo8wdrkDf/uqek53FefVXvdnV8w/ZoMP4lhSxi4ebeEl2c2dmTtnMrvt6flp/UzYhpZd2Mtakn7GPLqxmYqqUjSRTT2QkPc0QG8vAHjdixZ/LrF7xWE0JKIHgEzj98uvgl1rBJsAsK3dJphiu7WMw8Gsa2TupY8S1dFDC+XStYeLzDYYV2oeZYRimhl497uyuIzES68iSWh47axEZjofpC7kbe+7WzNkyvmJ9qaeUhO3h2sctsnPa817WyTa5QYc7sWdtkmMRhQzi/cNOYKOE2aGXkbuiOQ72w1mruWS3Ye2GfqCT7NKWsby6In3K2/Mepyx7627va+l/v3qQ8D4yZtl0xBiO7BM9iQzYzt3V9CZyLB2qWnvYMgzYyVjD7DxnzgFNK4ig3WXHnmRsTJ7nxqFIMBWRkfAUQ3QM7Rp1BL9ozmuIdlW7pQSUgBIoUAToqWP8RYqjChIZ6i7xRjKY+Oeye3hAfVPiIAK3SEaWoZKRxckgk5AMjJeVEzsluHY1EVOMp/iWZLqhvS8ZZSisysm5ZhKe50/J/OLNutewYzUyQDeDjHNn9tPdM957VHZcM+tMVtloLqllStYaOwYkg3UzhiStv/Sd4pPj4qZ4dyacp6Qd9z3c2c2yF5TI2N7GI4YVOJ3rLsmGMS7PptiZbHiOqR8ZU3OKeBW5aYdxKd12vWTyYcaaS6WP7uw8zPpDAXxFPVNEpHc+7nrC4VhFZDg8pRz08c0V8lscQlak2hCrN8Hu19h2unIjhH4stCtKQAkEmQAF1FrZ4UzRt2CH7M7+//bOBMyq6krb6wiIOKGoiAYRUEQmQcAJUTQRjQOIOINI1N+IMWqnNaZ9YtKddCfG9J8/+dMaQTsBZ8UhGhMVFZWA2iIYcQADgqAMijMgzpxe3z11UqeOt6i6Rd3p1Luep+ree84+e3h3UXy19t5reX+URWagB9hWIPExLh5vPT7MCUh1VRlk/tNTFP75FF+69aw1v/tm6MG4dScyZXg5w1MSSnTt69c3tg9RbZ9yT2B3exDzES760s/Kg9hQNpon3whymWuUjnBinoM497kY7uOxIf/7+biHvlf/rbrPKG2hbHj3uu3FTxzvKQ6vPTrMZe3ZdevQPncRrZPWXVxAK4bmcheQJ90d2DRPB1mfJbPzKMal9p72dE9sVgwRmZWZ9HFIqE2c6z/hFWX7Rb1ZVf5+ISQr6geDzkAAAhVGQLmtF70feB7sMLdc3N49bB8p84sLQ1ny4EhaNl3p+xAnv2CmoN/y7G3M2rry0NKyDvW8sz6w9LMSmQ1lo+m1YxT/UV49BThX7MaGrI17WhUzMn5GYYJk6faiq9F3eTNlWuLXkr4y10icfuKexoOdkzy68uBuzJIHaSSy33dGWTHcM1mZScYBAQhAAAIQ2EQC2v+33vdJPnlmtCw80XNWN8ZedrF51j5mB/geQe133Jgpx/VMr19CUu2ln1Xw70GdfK/jyZGCS2ajUTrGXV2kbtk6tEs87eCevjfz2VUba632Xn3PpNtTv9J2je+tlNdWh3aOcs/lPZ6BRsWUnachEZmsq2t780w4eRpIFqqi93giq2iy6CoEIAABCECguQh8f3qtmBnm+/ViU5YZ7RWMD6uc4xlZYouzzFyQitGorC3JZ1Q+zs4Sv8Z1aM/jSF8qjoNwp59tXDaawH4/L/JoxvWo/n96pLav05bUvte9SS6I8z2Tbk8HfuJxJmNRprPxHHlb3Sw6akM2vMYrGmes0TXVN8z3g2r/5E0v6ko2DE9kNuaRUUAAAhCAAASajUAsIAupsDHPLPEDOxJpSeGnNpLPaplZgrSLe+3S2Wh0YCY2LROn64nv1fea75n62stXR7Kful9I+wd5iB/lHE+OIV8b1XQNT2Q1zRZ9hQAEIAABCFQxAR00mfF6XQ9hejiFZqNJP1/o51K19wtPvZg1wxOZtRllPBCAAAQgAIFmJqATyfn2CjalGe2ZTIfFaUo9lfCMstXIa9pSrQUPvaVOOeOGAAQqhcAWBw8xu6y2N7nP+pi4Vnu3+d5tc9t1tvb0bzdfhU2sKd94/3GtiXXyWNMJ/P7YMBdEPK5htO+NjE8SKwvLcVMDu8dfj77dQwH5wRcFKp9Tc6hloofCUc7rX/tJ6cAdbm95PMVfzQ5sbp5DLz85NDq0o6XdpOmk89kedmein4Cuzw7wIOQ63BLbX141+78eeqhQ0/5E9V+Bzi890EMN+diaYrd4GCQdzDmhp2ej8dcPPb18kktT6qymZxCR1TRb9BUCEMgUgbZDDzJ9pS3ftXSZTfm8wUVk+x9csilVNOuzxR5vs3Y2w5Xp1LMywtz4YiSoJIgO2a3WA6n9hNOWeK5tP6WsjDDrPRuLDp4ofmJvD7mjDC8KYP6vfw1yGW+uOSoSnMorPbqnh/PxAzWPLa0LUPXHWWBO7iURabbMA5E/uPirGWL05LYeFkinocfVBBf/yOse76fCb/DwQhKYClOk+8lMMQqcLoGq+l/yPqofcf9/5rExH3AhKtvRw++M2ivKb/2y78tMZ5xRPTpdfYyHFfqfFUFub2f0pOJMenYfr/dHB0dcJKhbO8ZHXvNDRF7nfK/v1ffj0tl5RURmZy4ZCQQgAAEIQGCTCCjDyumecWXJB4Ed2S20cf3qxjUc0SMSeHGsR3nyRvcN63gcF72nMoE9OT40nXwe3j3MiS9J0693re2exN+39w0tzgIz843oXtf2oQvDuhlijr0jErYqoWX1A10wyuQJvcDD/ih143gPdi4RuZULzXSmmIc9ILiCqF8wyGMqu6cz7v/Anc1O7a3MOx5uyL2s73g8SGXLmTwvsCGd62ac0Wns2zwzz/MuRM/0tpKeVGWp0Zjjeru52FSmn5keFP2HLizP8cw8WTT2RGZxVhkTBCAAAQhAoAkElC1GIkyxHI/oZqbl4qSAU5V/fzfyFr7gYkreuSO7m4fO+apIkudSIrOf547WqWadZFaO6tiUojDOAqMg3FPnR3Vc6yIvfU+ByWPTcvlRLkz1pdzZ+UwHeMbfH4UdGrRL5J081TPtXPhw5EGUt1P9l/dQNrimzImegeb2l+U5jZbMk/VoPNd5mCB5Q2XDutQuq+uzRGpc7xT3jGo0PxrqKRB92TwObK5yWTI8kVmaTcYCAQhAAAIQ2AQCEk2/fTYSc/L2dfCl605+eCSfySOoYN9K55cUSbquZeF2rjCmL42Wm+d6WJ9nVwY50adQN7J0FphkuJz0vU9dgMYmMRfnyt7e4y7K2rlYVY7rd2tEoa6pnGzVWvdeeh91AEbL7hJ7MvUzNi01S5xKrCrfdro9ldvbvbTnu9dTbf96eLT3M34++ap6FcZHHkt5YpXCMavmWDEINI6A9pQkk9k37ilKQQACEIBAtRAY29fsKV+G1tefFgW5DDS3n1DX46axzF5pnh7R7PIh4Vf2Od44MrR/9mwyV3uWF+WKvv75wI7oGnnl+nesrSudBWa5iz15LKd6e+l7SYGZZKmDPyv9ucfGhLb7dsk7te8lSGevcEE7NrTzfPlc5eP+SxjKtIyt/aAP+bL3YbtbLp93dKf2u4Sm9nded0yYy8qzcx5xHdd7uNdx60uRSp3sS+1ZtWDNmjXhNtv4blqs6gk0R+7s9Mm3mf6P6sd/jf4BHLOHb0b2Xxg/nhHkTrPJ7Z8+SXfxfmFuE7GS0usft/6KvXN0aPf+3ey//BfKxkx/zSqFlE7+6R9qc9qEQa0snTt7w4Cettnz3rEyW6X0o8wYaL6EBPiZKyHsIjY1YJKvkxbZ9HtZXjV9pU1Lyd/aJ7SpCwJbXePdS5eJP8s7p7ryicFkphuV077COE938l5cV75XOTny1Z0sm65L/V+X+r8mXSb5fPy+obZUr/JsX+anvod09qV330vZ3Pb8ee56LbMtXrzYWM4u8yRUWvPpk286nad/1DrVtv0W0W8R7YHRabb0STqNRZ5KLQec63/t/dIDq2pjsT7r1J9MYRWUheCO+WZ7dYjK6/SaBKr+ytPJP52q0xLFiXtHfxku9E3aGAQgAAEIlJ5AvCScr2UJMHkbG2MSofWJvGQWGJWLBaTqTd7bWDv11Z18Jl1XWkA2tr2G2lK93dwr2ncnd7w81jg+yX5W03v/uwCDQF0CEo06nacv/cV1w4gwd4Lu9D5RuQEeH0yn2XbbNhKVOkmXtPX+x/FR3aMretVn2bkuKK/0+F4jfDP1I770oCCt/3ZomBOpPz4kzG3k1sk/bej+40lh7mTgZG9be0owCEAAAhCAQLUQkLPl5HsCe/6taulx0/qJiGwat0w/pc3FOp2nL8W56uEew8v8r6mrnvIPCftDzWk8naRL2hu+B0ZLAmNcdCpel/a5yI5zgfiAbzA+xf9haVkjfup7+4e5vzbjf2z9O0ZC8nPfFK2/gkfuVVekRrXxHQIQgAAEIACBchJgObuc9Cu0bQm3yx+PJV50Sk2n8zp6CIbGWCt/9KnlZhe7OJyxzKzzttFTK1xM7uh7JCUwJSK1VP6cx/jSsvhjS2trluiUbLzDwz0oNdb8d2rv8Q4CEIAABCAAgcoggCeyMuahonrRxn8q4tN513wztLsWmF3hwVLH+wbqpGkjdXySLnld7ye5d1IyNOmlVHytfu5l1OGZhR5nTEFip3hmBC2fx15NPatTchKfOsTzHQ+nEO+n1D0MAhCAAAQgAIHKIMDp7MqYh2bpRXOczq6vI/WdRkufpKvv+eT1xpx+U3m1Ka9ovlOByfoa857T2Y2hRJmWQoDT2dmY6VKczs4GqeyNgtPZ2ZvTTI+ovtNo6ZN0jYGQPiFX3zP1tVlfea5DAAIQgAAEIFA6Aixnl441LUEAAhCAAAQgAIHMEEBEZmYqGQgEIAABCEAAAhAoHQFEZOlY0xIEIAABCECg2QjsurWOL2ItjUAlzTshflraTx/jhQAEIACBTBB4YCz/hWdiIqt4EHgiq3jy6DoEIAABCEAAAhAoFwFEZLnI0y4EIAABCEAAAhCoYgKIyCqePLoOAQhAAAIQgAAEykUAEVku8rQLAQhAAAIQgAAEqpgAIrKKJ4+uQwACEIAABCAAgXIRQESWizztQgACEIAABCAAgSomQHyAKp68dNcnDOZvgjST+DNsYhK8QgACEIAABJqHACKyeThWTC2IpYqZCjoCAQhAAAIQyDQBXFeZnl4GBwEIQAACEIAABIpDABFZHK7UCgEIQAACEIAABDJNABGZ6ellcBCAAAQgAAEIQKA4BBCRxeFKrRCAAAQgAAEIQCDTBBCRmZ5eBgcBCEAAAhCAAASKQwARWRyu1AoBCEAAAhCAAAQyTQARmenpZXAQgAAEIAABCECgOAQQkcXhSq0QgAAEIAABCEAg0wQQkZmeXgYHAQhAAAIQgAAEikMAEVkcrtQKAQhAAAIQgAAEMk0AEZnp6WVwEIAABCAAAQhAoDgEEJHF4UqtEIAABCAAAQhAINMEEJGZnl4GBwEIQAACEIAABIpDABFZHK7UCgEIQAACEIAABDJNABGZ6ellcBCAAAQgAAEIQKA4BBCRxeFKrRCAAAQgAAEIQCDTBBCRmZ5eBgcBCEAAAhCAAASKQwARWRyu1AoBCEAAAhCAAAQyTQARmenpZXAQgAAEIAABCECgOAQQkcXhSq0QgAAEIAABCEAg0wQQkZmeXgYHAQhAAAIQgAAEikMAEVkcrtQKAQhAoOIIhBOvtg0Deub6pVd9xiAAAQg0lQAisqnkeA4CEIBAlREIxp1lttVWUa/9Nfe5ysZAdyEAgcohgIisnLmgJxCAAASKSyAnHM/OtRGM89dYUBa3VWqHAAQySgARmdGJZVgQgAAE8hGIvZF4IfPR4RoEIFAIgdaFFKYsBCAAAQg0jcDEORts4twvm/Zwsz61uZ3Xe7xNunlzr/XzZq25qZVNGNTKJgzGp9FUfjwHgXIR4F9tucjTLgQgAIEyEZg0+DtlaplmIQCBLBFARGZpNhkLBCAAAQhAAAIQKBEBRGSJQNMMBCAAAQhAAAIQyBIBRGSWZpOxQAACEIAABCAAgRIRQESWCDTNQAACEIAABCAAgSwRQERmaTYZCwQgAAEIQAACECgRAURkiUDTDAQgAAEIQAACEMgSAURklmaTsUAAAhCAAAQgAIESEUBElgg0zUAAAhCAAAQgAIEsEUBEZmk2GQsEIAABCEAAAhAoEQFEZIlA0wwEIACBchPYZWuzzVuVuxe0DwEIZIUAIjIrM8k4IACBqifw6JjQHj8jtAdODe2MvoUNZ8/tzUbuZdbaf6vPOjO0bZQaO2W3nxDaEV1TFxMfJTAnDAwTV3gLAQhAoH4CiMj62XAHAhCAQEkJbNvW7OdPBnbfQrPvDg5tyzZm4/eJunDA18wG7xJ93n4Ls922NTulV3Rvs8DskgNDu+SA0PruZDZtidnHX0Rex7EuRvt3rDsM1TWyR3TtkN3MxvSJxOfJXt/Z/c2O3qO2/Oi9zQbsbHZabzO1I9Pz57vY/No20Wd917Mqp1fZXh3Mzh0QmvqKQQAC2STQOpvDYlQQgAAEqpPA4buHtnt7s48+N9vOBdgFg0K74YXAxvcL7csNZj13MNuhnVnHLc26b2c2dUGk7Hbyz/JCdtzKbIQLxN/MNrv/lNDe+kh1mF0xIyo3sFNox/n9n8z0Ol2gfnvf0FatM5PYnPlGxKxre3kjo/IX7xda6B+/9C/Ve93fAvvF4aHNW202zvt06E2BXXdM1Gc93da9mS+uDmzycaEtel+iNLTDbwnsExe1GAQgkC0CeCKzNZ+MBgIQqHIC8j5++mUkxtrk+Q396FKzw3Y3229Xs3sXRkJvgwu8B14NbM2nZg+7F1LWz72PEnSn/jGwCx8ObLWLSZmWvGevNHtwsbyRoX3ubX3mXxKhU+dH9V37XPQaPWF21dOBfX96YHv4kvnTK6Jnd6wRrbrWy4XtD58I7KcuTGUn9PQOuclzGfjXsXvmPvINAhDIGIE8v6IyNkKGAwEIQKCKCFw9J7B/eTzIHYDZ2b2KsnYuLLfzpW7Z5HmB6fpWfu2uV6Jr8fd4uVmf33Tv4mb+G34LX2/qvaPZrjVLz6++Z7a/C9Cu7u1cvT76muSiccoLkZiM60q+dnDPZ2d/XmLzO+4ZHeYi9nuPBBZJxUj0dvI+yQsqW/ZhkPNcqt6bXjT76+vRdb5DAALZIoCIzNZ8MhoIQKDKCdw0MrR7TwptzqrIY7hyrdljfuBmd1+6lr0t4edexUUuBiXqYpOHsL0LzcuHRNJO5Wb7teljQzvPl6xVj+zmlwJ77k2za48O7RoXrFoa1/L0Ud3NlnsZLTtP9QM4SdP+R9V7r+/VfGJZYO1cmE4ZEZXp4nsz75hv9oODQtPSt2zqgqifV309tNP7uAhm41QSJ+8hkBkC/NPOzFQykKok8MknZq18zRGDgBPYf3LdZWRBGXVX5JWMBaMOr+gAzrVz65Zd8I4vc98c2Be+b/LKpyKcWsaWJzLejzjM9y/KHlhc++w3fL9isozqaJv6n+Fnfthn+tJa0Tr0xiC3VK22ZP29TxKYOtSjfZm6foL3Wx7Uj31vJwYBCGSTAJ7IbM4ro6oWAlv4yYlOfuR2xfJq6TH9LAOBWECq6ZN6hTZjmYTgVzsisRgLu/huLCDjz/lek2W0vzIp/Oa9ZTkvZrIPKpNs5+nlgfVxAbnCPZmX+t7J2JL1xNd4hQAEskMg9fdmdgbGSCBQLQSCA4ZY+NBfLDjnvGrpMv1sDIE5fjx68P6NKVlQmSv8AEsp7SL3ZjZkT/rfQE+6kMQgAIGWRQBPZMuab0ZbgQSCsWdaeO1vLXz80QrsHV1qKoHQRWR4/jkWPj2rqVXwHAQgAIGKJoAnsqKnh861CAJ79LDgt5Ms/OV/mN042TeW9fOjt1u3iKFneZDhnGfM5I2UiDxoqHU+8Fs+3AOzPGTGBgEItDACiMgWNuEMtzIJBEOGWnDvQxbOmmH26iI/CeEHbjAIQAACEIBABRNARFbw5NC1lkcgGDrMTF9Y9ROY6ENo4wmszzzLAvdELp/jR5bnJmLyVP8IGQEEINDCCSAiW/gPAMOHAASKQyDQoZoJ3y1O5dQKAQhAoAIIcLCmAiaBLkAAAhkkUIST2RmkxJAgAIEqJoCIrOLJo+sQgAAEIAABCECgXAQQkeUiT7sQgAAEIAABCECgigkgIqt48ug6BCAAAQhAAAIQKBcBRGS5yNMuBCDQoggk0wS2qIE3YrCwaQQkikCgAglwOrsCJ4UuQQAC2SPw3f03M31hEIAABLJCgN9oWZlJxgEBCEAAAhCAAARKSAARWULYNAUBCEAAAhCAAASyQgARmZWZZBwQgAAEIAABCECghAQQkSWETVMQgAAEIAABCEAgKwQQkVmZScYBAQhAAAIQgAAESkgAEVlC2DQFAQhAAAIQgAAEskIAEZmVmWQcEIAABCAAAQhAoIQEEJElhE1TEIAABCAAAQhAICsEEJFZmUnGAQEIQAACEIAABEpIABFZQtg0BQEIQAACEIAABLJCABGZlZlkHBCAAAQgAAEIQKCEBBCRJYRNUxCAAAQgAAEIQCArBFpnZSCMAwJZI3DMLV/YynVh1obFeJqRwIRBrWzCYHwBzYiUqiAAgQII8NunAFgUhUApCSAgS0mbtiAAAQhAoFACiMhCiVEeAhCAAAQgAAEIQMAQkfwQQAACEIAABCAAAQgUTAARWTAyHoAABCAAAQhAAAIQQETyMwABCEAAAhCAAAQgUDABRGTByHgAAhCAAAQgAAEIQAARyc8ABCAAAQhAAAIQgEDBBIgTWTAyHsgEgfXrfRhBJoZSaYM4ax+zU3uH1tr/RJ3yQmBvrDG79MDQRkyFd6XNFf2BAAQgsCkEEJGbQo9nq5fAlluadehg9sEHZtttV73jqLCeb9XG7PxBoV35VGDt/LfLRfuFNva+wB54Neqo7p+4t9kr75q1bWW2wWOpf/yFWZ+dzGa9YfaaT4esm0/JXj4905aYjdzLbO4qswO+ZrbkfbO9dzCbuiB6Ni7bw8u2b2v23Jtmi72M2jm9j9nKtWYPeR1qp8u2ZkM6m73tfz8s/dBsmX+N7mn2zsdmjy1VTRgEIAABCBRCABFZCC3KZopA0H9fC2c+YcGIUZkaVzkH89HnZitcuJ07ILTr/hbYgVOCnAg8tbfZtc+ZPXhaaO+5aNt5K7NXXex9vsGsl4vClev0jNmhN0XeyiO6hXaCi8dpSwL73v6h/decwC52QRq6GPzSv0b0sJw41VgP6xIJVwnDSw80O/vPgf38sNC+8Lp3aGfWt6PZ3a8EduuoMCccu7Y3mzzPbOAuZnqvFr/e1eyKJ/CUiicGAQhAoLEE2BPZWFKUyx6B0SdbOOkas1UrK2Js4fnnWPj0rIroy6Z04iwXcbPdc6gl7PtOdsVXY33d27i5ex9H3RXY9GXxVbMZr5uNvz+wLfxPWi2Bb8yuejqw708PbI/t65aSMD3lnsCW+9L5iB6h/b9nAnvvE7PNXBfuu7PZCT1De9OFqsrIEynr5/35xL2gn31pdpB7OTEIQAACECiMAJ7IwnhROkMEgkMOc3fYIttwyvEWnDrGrP9AC9q566pMlhOQEpEHDTU78yzvxQFl6knTm+21o9nVR4U26s7A7lpg9ofjwpxwVI1vfuRePxd1Wnbezr+SJq9h0j7+PPDnwpywbJMQlh18evRZwi9pbf03mQTjNpv78vT6wK48PLTJL/huBReSnbfxvxPWBbZlm2ifppbRZRKQc335+9mVgW3tz2EQgAAEIFAYAURkYbwonTECwVnnWuCiLXzkIbM7b7Owd1+zOc+UdZQSk66H7KAdvrCndzu4rH0ptPEF71juIM0jY8LcsvPTK2oF3zvuAfybi7Zpp0fL0lrOrs8eWKwlarNHvZ6kd/L8gaG1cjh3vlL3yS19D+TMM0P72JfT7/Z72j+pAz4Sp+s+M7tvoevyfl5mXGibuQiVmL3++cBU3ze7h7k9kXfMF3UMAhCAAAQaSyBYs2ZNuM02/qc6BgEIlJXAhgE9c4JWXkgJ2wGTXBFVqWnZWpb2GMpLOW+12Wm+R/L+RWa/mV2/cJNnUQIyrmOGC8Bf+IGd6Utrr6mN+DT4SPd+xmV1Xcvj8jbKOvoezJ/5PslnVgT2f3y/5jl/CezltyPvZbKNqHT1fJ8wqJVNGJxw1VZP1+kpBCBQ5QQWL15seCKrfBLpfkYIrF1jwbW/j0RkBoaUFHPJ4cxdFdhw9/w96J7G382tX0DqGZ2oTtYz763otHXymsot8RPdOpWdvh4LSJXRnkmd1B7WJbRfu3CVgJSl24iu8h0CEIAABBpDAE9kYyhRBgJlIFDNnsgy4GqRTeKJbJHTzqAhUBEE5IlkHaQipoJOQGDTCQzzUDelNC03K/Zi0nKHZrZIXsn/vqeH9Unudcxfqjqv6nBPmkt1joReQwACENg4AUTkxvlwFwJVQUBxGS/xkDqlMIm/WX6IRULprhPrtvmTQ33fop+M3pjdOTq0KX5qe5etN1aqeu7FPCQeD97NbPrY0C70mJaFmAKjZ4VHIeOmLAQgUN0EEJHVPX/0HgK50Dbj/STyRdOiPYY6maxTx1+rOS+nQy5j/dB5fw+6HdvwbmZH7xF9kgg6pVcUcDu+P7CT+QEUs508sY8s+VknnpVJRplmZAd3Njt89+h98vshLqjGuDhKehz5WabQAAAONUlEQVTlLd3dA3zr9LVC7+jZ0XtHZRSQ/KjuUQ3KWHOkv1e2mj09JqT6oTGmQ/Ekx6pxnlEzzpN9PPKU6pnt3TO6mwtejTE2xYXUszqxLfEnU+Dx73i2HY01NtUzwONM6lWmLDoS7KoztphHK+d48eDQFHD9Bk/3KMvXJ10Xh3Hetu4P9qDnF/pzyu6DQQACEKgmAhysqabZoq8QyENAQbNlytgicSJPoE5Aj+sX5jLAPOwhdd7yGI0XeMicK2YEfjI6zAkmiZ6hLvR0cjmZuWXGssDkUXzJD598y0XYT2cF9m+H1H5WVhlljLnpxajdHx4cWnsXVXfMjz7ru8Tbt/cNPT5jJGCPvSMSVRJzsm09TqROSfdzYaswQCP29CVgF3FfblDebQ/F87qH33FBp8DgEpB6leBSdhoFM5elx3qyBxKXEFObekaxKCX+lLWmo3/u7sJ06oLoWbXd22NaKnbleQPNvnFLYLeNCu351RKWoU14MKpLglem2JIvrg5ssntQF73vWXH6h3a4PxMf3hGPGzwupcalwzqx+O7gXNJ9Un1n9Tdb7gd9JNR/9T9BTvDiiRQZDAIQqCYC/t8IBgEIVDOBPd079v4n0QgkyHTyeUcXTfIAHuPiTALo1D8GduHDga120bSPC7dLPOvLmX8KPD5i8JXMLYvei1IBKv/0rzzzy8J3636WSEraMS4QFYdRoi62kZ415vMvoxPTElSxt+/ml6ISv/TMMzLly77Y+9XbhfDlj7twfCjI5dGWF1EnqiU+JdSu9xSKf5gX5IRmVEMkPpNjjQXf8R7qRyJ6H/cgPrrUhad7Sffb1ezehVGb8fOzlnsmG8+eo7iTysetNI3b1ngldYpb6Rh/+ERgP50ZPaesNzL1TXEmj3W2SdMcvOjCWzm5H1+WvGOW7NNxLjjliVX2HM2RPJc6WX7ry1E7dZ/kEwQgAIHKJYCIrNy5oWcQaBQBedNikabl2GEumr73SGCSPPLgKbi2YibK87arLyFLlMnrJa/gXh3C3GdlbrnGQ+5ISEmMXeeBuJ9d5cJuSGg6BJP8nF5S1rL5ju7tW/tZbXdXe7v6mvRcYFPcQ/epi6R8pjzYsvUupDp5n9S28mMnhareu4My56XMFa75lh5r8p7qkE124ak83RLEd70SXYu/i5muSxDKgyjP57+711ViUNfU507+rDy1smUfBrkA6hqTvLB/fT263tjvcZ+UW1y84jSPH34a1dAaDdlYlJSDAAQqhAAiskImgm5AoKkEXnKvWyxInvCl6HYuGKeMiFTU1i6SZq+IDnuc58vLipV480uB/Xiox0s8Qvv3glzmliO6mv3Ir/XvGNo6F3Tn+HLtKN+PqPLyCCY/S/Al7Zbjw9yBkhtfrFVB18wJcsvIWlrXPsd0DMfk83ovL+NlfjDo5x4QPC320mXjz+mxxntA4/t6lYiW91Xe1XQf5JFVRpz57j18yr2SEsHXHeNL8y4oJTy1PP+Dg0K7uGav4tQFUX1XfT00HYQR56aYhLqW8Z84I8x5eee4WFf2niucPwYBCECgmggQJ7KaZou+tigChcSJlPiRR+v7vkyt5VZ9JfNRJ7O3CGJ82CUuo/K6lhRa8tJpqTW29Of4er724nvpduPr+V7z9SFfueS1jbWtcjoU8/+PDO0qz3SjJeTYfn9saO+5x1HL1ckxa99l/PlSF7Va6u7rS+1ic/q9/sGtnXNResVNtTQbeXiVorEQI05kIbQoCwEINCcB4kQ2J03qgkAZCVzk+wrb1KwraPk3Fodxl+IDIPFn3U+W0TOxeIrLJAWkrqU/x+XytRffS7cbX8/3mq8P+colr22sbZU7qVdoM5ZFexCTzynDzQt+UCY95uTnp5dH+zO1/Hypi/PYmkNAqq40m0IFZNwfXiEAAQiUiwCeyHKRp10INECgEE9kA1VxO6ME8ERmdGIZFgSqgACeyCqYJLoIgVIS6OKHbbRE3JDliwvZ0DPp+41tK/1cNX/WIR0tYzcms4/KaukcgwAEIFCpBGoWwCq1e/QLAhBoDAFljhnZozElN15G9WznsQ1l2geozDTxye/oavRdJ5n/af+6B0G0z/BxPyzy0Gl+ynlY3XvJZ+P3akuhiOprIy6X71XhhBSke2NWiVlgdAjpxL0tF4ezocw+N40M6wRI39hYuQcBCECgHAQQkeWgTpsQ2EQCCs+j09a9PGyP7KHFgb38TvReAbbjLCvK/DK8m5liEypLi0ziMJ2h5pDd6sZ5VDntmZy2xEPruB5MZ4K5zPcIqp2kp0zhgxT25mdPBvaNrp5txttsqK24jS+8DWWP0XPyUObLDKNxKMuOTmHr1PS/ePgheevSLNT3dBYYhSk613nFQcBVRqZsOWJ1Wu9aD2wyC47K6ECR+ra/x5oUJ5le09l4dL2Dh+452wOJKzSQLF8WnOhO7fd0XZozBVxvhEO4thLeQQACECgDgSYGqShDT2kSAhDIEZBnUPmnZ69U5pPQzrgvcNERehrCwJQ9Jg66rSDjUzz9njLHLPYQMnt4+sAT7/bwPp59JpmhZsWaKAVfHLA8iVmZWG59+atZV673OJIKJi5h+tjS2id0bb3HoZQfUrEXrz264bbi7Dff9dR/SqX4m9lRuJ9kZpjf+glr9VlZdua7WG7rv7m07K5MNP/tHtAkC4XL2dVjTuq+4mHqdPX1fnr9tQ+iUEVjnZd4yBS+R/EbJZTVD4XfSWf8edA9qwpzpLA/qrv79hHTdDYeid+pPi8L31NqRA9GPvWrWXCiVmu/j9+nbmafSx4N7Ab3QL7hcxJ7hGtL8w4CEIBAZRHwX8kYBCBQTQR0Slpf8ljd7rEMle4wtnSWFV1/1wWQwtMovqO8aUqTqJPBn9WIwCPcw/eXV6PsMHE9+V6TWVd0/wMPkbP3DpKLtaYMOdcc5ekKP4rEZ6FtHX5z8I86JQLjzDDJLDv3/j3IZYV5YXUkKPOx+NOiaHzKAjPaM80o7eMYF49LXAQq5WHSrvLsOQqNJJGdzvij/N0K+zPKM9tMXxY9VV82njF9I/GnTEBKFanwQOksOMl29T5d1yl+mny5C8iTXOznE/Xp5/kMAQhAoJwE8ESWkz5tQ6AJBLScq3R/r30Q2KUHhPa6i47Y4iwrbVz4pC3ODiMBqQw1z64MTLEJh3cLc8uw8RJs+rnk5zjriq5t5c+uWudKKWEStbr2z75fcktfBi60LYXsiTLDhLlsN/t48HMtkV84OPIqamlZWXZkEpn5WNyTyEzT2sssej/wHOFhrrxyfH9Us+wfd1tL0AqPJFEdZ8H51v2Bac+mBLiEbO4gjHtWZcrEI5bKXNNnp/Af2XhWrA089WPUt8G7hF5flP9bovLXw8NcPVENtd/TdX3i3uSDva8SrvIkYxCAAAQqmQCeyEqeHfoGgTwEtLT6TfeQXeRLsRKNc3xZO7Z0lpX4evJVS9FHdK3NUDPZl7wPcA/l7SdEAihZtr73EnDKhvNMou247J0LPGi2ez2v8KX1prSVLzNMOsuOlq+H7hYtVdfHIs4Cc7eLSnlhn/RDQjoZPdGXrJN2/sAwl97x3oWeRSaV8Ue5tP/mgnva6aEN6hQ9VV82HmXa0R7Pp8Z7Bp/OkVcznQUn2a7ep+u65+/RXkhls0FEpmnxGQIQqDQCxImstBmhPxCoIdBQnMh8GWTqy7KShioRqEMv8r7J9F5eQH01xv71kND29OXfce5la8ia2lY6M4z6KIuDpCczvORjobLJMukMMbo/Y1xov/BsNtOX1rJQf/UVt3O1L8/P86VzHb6535fJtWdTlq8+XU/3O5kFR/fzWbquxjyjeogTmY8m1yAAgVIQIE5kKSjTBgSKRCBfBpn6sqykuyCxGAtI3ZNgaqyAVHkt757/UMMCUmWb2lY6M4z6GAs71ZvM8JKPRbpMOkOM7s97K8oPnmSh/ibbmbsqMMXF1BaC382tHXO++lRnut/JunU/n6Xraswz+erhGgQgAIFSEsATWUratAWBAgg05IksoCqKZpQAnsiMTizDgkAVEMATWQWTRBch0NIIKKZjvHTd0sbOeCEAAQhUE4GaXUbV1GX6CgEIZJWA4l9OOS7MxXfM6hgZFwQgAIGsECDET1ZmknFAoMoJKJWhAqXr8EpnD2Ok4N07e7DwP/mpaaUKVFxKZdBRfMweHaKDLfPfNvvwUzPFp9Qp7OQ+ySrHQfchAAEIVDwBRGTFTxEdhEDLIKD0hTJlulFA8H4dozA5I1wgdnFx+aUfrFE6wJmvR/EX3/Z4jUpjqFedZj7MRehZf649+BLVxncIQAACECgWAZazi0WWeiEAgYII3PxSVPyXnkFGNusNT0v4cGC9PcPO5Y+7cPTT4H38vcLvKFbmsXcEuWDm13vcxz/MC3JCM6qB7xCAAAQgUAoCeCJLQZk2IACBggkoK4xMgcI7+bK2Yj4qY04yFJHeu4My56XMFeYbBCAAAQiUjAAismSoaQgCEGgKAXkZLzswzJ3YVlYYDAIQgAAEKoMAcSIrYx7oBQS+QoA4kbVItISdzLBTe6dlvyNOZMuef0YPgXISIE5kOenTNgQg0GgC6aw3jX6QghCAAAQgUDQCHKwpGloqhgAEIAABCEAAAtklgIjM7twyMghAAAIQgAAEIFA0AojIoqGlYghAAAIQgAAEIJBdAojI7M4tI4MABCAAAQhAAAJFI4CILBpaKoYABCAAAQhAAALZJZCLE7l27drsjpCRQaBKCXRs/YW9ua4m4naVjoFuF5fAunWtbO1afAHFpUztEIBAfQSC1157jf+l6qPDdQhAAAIQgAAEIACBvARab7215xPDIAABCEAAAhCAAAQgUACB/wWTuIec51Z/EwAAAABJRU5ErkJggg==;" vertex="1" parent="1">
                    <mxGeometry width="657" height="374" as="geometry"/>
                </mxCell>
            </root>
        </mxGraphModel>
    </diagram>
</mxfile>